<svg xmlns="http://www.w3.org/2000/svg" width="141.587" height="399.512" viewBox="0 0 141.587 399.512">
  <g id="Composant_7_1" data-name="Composant 7 – 1" transform="translate(0 399.512) rotate(-90)">
    <path id="Tracé_32" data-name="Tracé 32" d="M56.665-91.581H57.7q13.02,0,16.373,8.532a22.844,22.844,0,0,1,.74,4.586v2.121q0,13.71-16.718,30.576a103.483,103.483,0,0,1-10.307,7.1H45.667q-.542,0-1.036-1.036,1.085-3.255,4.932-3.255A51.118,51.118,0,0,0,70.128-70.276a16.3,16.3,0,0,0,1.134-6.066v-2.121q0-8.088-8.236-10.652a19.743,19.743,0,0,0-4.932-.69h-2.17q-32.4,0-40.834,43-2.417,11.1-5.622,43.645Q23.82-12.625,46.407-20.17h1.381q.74.049.74.641V-18.4A141.1,141.1,0,0,0,8.729.74Q3.8,42.264-18.937,42.264h-.345q-4.685-.444-4.685-3.551v-.3q0-11.1,22.784-33.437Q5.573-.2,5.573-1.036,10.159-47.245,15.091-61,26.039-91.581,56.665-91.581ZM-20.417,37.283v2.17q0,1.036,1.479,1.036,10.5,0,18.444-15.239Q4.833,9.173,4.833,3.551q-17.113,15.337-22.34,25.99Q-20.417,35.163-20.417,37.283ZM57.01-23.277q.74.049.74.641v.395L29.343,44.188q.69,0,.69,1.036a10.571,10.571,0,0,1-3.206,3.9H25.447q-.74,0-.74-1.085Q43.2,4.389,51.684-14.795h-.345a14.579,14.579,0,0,1-4.981,4.241H43.546q-.493,0-1.085-1.43,2.219-6.707,4.291-8.482h1.775v.74l-2.811,7.1q1.923-1.184,10.258-10.652ZM88.967-86.6h.74q1.036,0,1.036,1.381-1.775,5.277-7.5,13.858,0,.789-6.362,14.2Q58.391-16.422,58.095-8.482a3.392,3.392,0,0,1,.3,1.036h.395q1.825,0,12.033-12.083a3.263,3.263,0,0,1,1.479-.345h.3q.74.148.74.74v.74Q64.111-5.326,57.75-5.326q-2.515,0-2.515-2.417V-9.222q0-9.617,31.957-77.032Zm-3.7,57.306,1.381.395v2.121l-2.86,4.586v.395a4.546,4.546,0,0,0,4.291,2.121v1.036a.654.654,0,0,1-.74.74H85.564a5.964,5.964,0,0,1-3.551-1.775Q74.468-7.989,71.065-7.989H70.67a2.514,2.514,0,0,1-2.515-1.775q1.775-10.208,4.685-12.773l1.775.345v.395q-3.551,9.913-3.551,11.688,3.107-2.515,9.518-11.343-.641-2.663-.641-2.86Q81.865-29.294,85.268-29.294ZM97.7-42.166h2.17V-40a21.277,21.277,0,0,1-4.291,1.036H94.54q-.74,0-.74-.69Q93.8-40.144,97.7-42.166ZM89.213-25.792h1.381q.542,0,1.036,1.036v.345q0,1.184-3.551,9.617v1.775a87.045,87.045,0,0,0,10.356-6.707h.3a3.716,3.716,0,0,0,1.479.3v1.085q-6.362,5.918-12.428,7.792H86.7q-2.17,0-2.17-2.071,0-2.515,3.945-11.392a2.762,2.762,0,0,1-.395-1.036Zm15.633,1.332h.641q2.91.3,2.91,2.515,0,1.923-7.841,4.192-1.775,3.847-1.775,4.981h.345q4.291-.3,11.688-6.756h1.134a.676.676,0,0,1,.641.74v.69q-7.1,7.1-12.428,7.1H98.09q-2.515,0-2.515-2.071a7.418,7.418,0,0,1,1.775-4.291l-.345-.74v-.69q.74,0,5.326-4.932Zm-1.43,3.551h.3l1.479-1.43Q103.564-21.65,103.417-20.91ZM152.19-55.678l1.775.3v.74q0,2.121-6.066,12.033L135.127-12.773h.345q3.8-1.43,10.307-7.1h.74q.74.148.74.74v.74q-7.4,7.743-13.167,7.743l-.395,1.43.74,6.066q0,10.554-8.482,26.976-3.4,6.362-6.066,6.362-2.17-.2-2.17-2.121,0-7.2,12.822-37.579-2.17-3.4-2.17-4.291l1.775-.395h.395l1.381,1.134h.395q12.872-30.773,19.135-42.313ZM131.28-3.9a138.573,138.573,0,0,0-10.652,30.921v.345h.3Q131.576,8.729,131.576-3.551V-3.9Zm20.664-20.565h.641q2.91.3,2.91,2.515,0,1.923-7.841,4.192-1.775,3.847-1.775,4.981h.345q4.291-.3,11.688-6.756h1.134a.676.676,0,0,1,.641.74v.69q-7.1,7.1-12.428,7.1h-2.071q-2.515,0-2.515-2.071a7.418,7.418,0,0,1,1.775-4.291l-.345-.74v-.69q.74,0,5.326-4.932Zm-1.43,3.551h.3l1.479-1.43Q150.662-21.65,150.514-20.91Zm13.315-3.551h.641q2.91.3,2.91,2.515,0,1.923-7.841,4.192-1.775,3.847-1.775,4.981h.345q4.291-.3,11.688-6.756h1.134a.676.676,0,0,1,.641.74v.69q-7.1,7.1-12.428,7.1h-2.071q-2.515,0-2.515-2.071a7.418,7.418,0,0,1,1.775-4.291l-.345-.74v-.69q.74,0,5.326-4.932ZM162.4-20.91h.3l1.479-1.43Q162.547-21.65,162.4-20.91Zm64.309-45.42h1.381q.74,0,.74,1.036L198.3,6.066a2.649,2.649,0,0,1,.345,1.036l-1.085.74h-.3q-1.923,0-2.17-1.085,0-1.874,12.428-30.182-3.156,3.4-3.156,5.671-1.726,0-5.326,3.551-2.614,1.775-3.945,1.775h-2.515a.567.567,0,0,1-.641-.641v-.395q.2-4.636,6.707-11.737l1.775-.3h.395q1.332,0,3.156,1.775h.395a209.138,209.138,0,0,0,11.293-20.664q6.066-11.688,10.307-21.65ZM195.49-14.844a15.825,15.825,0,0,0,5.967-5.721v-.345q-.345-2.17-1.036-2.17Q196.427-18.691,195.49-14.844Zm24.954-9.617h.641q2.91.3,2.91,2.515,0,1.923-7.841,4.192-1.775,3.847-1.775,4.981h.345q4.291-.3,11.688-6.756h1.134a.676.676,0,0,1,.641.74v.69q-7.1,7.1-12.428,7.1h-2.071q-2.515,0-2.515-2.071a7.418,7.418,0,0,1,1.775-4.291l-.345-.74v-.69q.74,0,5.326-4.932Zm-1.43,3.551h.3l1.479-1.43Q219.162-21.65,219.014-20.91Zm10.159-5.425h1.381a2.2,2.2,0,0,1,2.515,2.466q0,1.184-4.636,5.03,1.184,1.332,2.121,5.622,2.515,0,10.652-6.362h1.43q.74.049.74.74v.3A32.963,32.963,0,0,1,230.209-10.7a4.1,4.1,0,0,1-4.241,2.811h-2.121v-1.43a9.981,9.981,0,0,1,3.9-3.156q0-1.923-3.156-8.137v-1.134Q225.672-26.335,229.173-26.335ZM227.4-21.354a5.913,5.913,0,0,0,2.811-3.206h-.3Q227.4-23.524,227.4-21.354ZM338.36-92.468h2.17q10.406,0,15.239,13.858a54.432,54.432,0,0,1,1.085,8.137q0,17.211-16.718,28.751-11.244,6.756-21.3,6.756h-5.671a45.462,45.462,0,0,1-20.565-4.981v-.345q0-.542,1.036-1.036h.74Q307.291-36.4,315.28-36.4q18.79,0,31.957-15.979a31.275,31.275,0,0,0,6.066-18.4q0-12.378-8.877-18.494a10.1,10.1,0,0,0-5.326-1.43q-9.469,0-24.165,14.2a218.606,218.606,0,0,0-29.1,39.453q-14.2,23.82-31.661,59.229-3.847,7.545-5.622,8.877H246.04q-.74,0-.74-.641,0-3.945,21.3-50.105,28.85-59.377,30.921-64.259h-.345l-1.036-.74q3.008-4.586,5.326-4.586h1.381q.74,0,.74,1.036-21.3,43.349-40.834,85.219v.345h.3Q309.214-92.468,338.36-92.468Zm-33.387,50.3h2.17V-40a21.277,21.277,0,0,1-4.291,1.036h-1.036q-.74,0-.74-.69Q301.077-40.144,304.973-42.166ZM296.49-25.792h1.381q.542,0,1.036,1.036v.345q0,1.184-3.551,9.617v1.775a87.044,87.044,0,0,0,10.356-6.707h.3a3.716,3.716,0,0,0,1.479.3v1.085q-6.362,5.918-12.428,7.792h-1.085q-2.17,0-2.17-2.071,0-2.515,3.945-11.392a2.762,2.762,0,0,1-.395-1.036Zm15.633,1.332h.641q2.91.3,2.91,2.515,0,1.923-7.841,4.192-1.775,3.847-1.775,4.981h.345q4.291-.3,11.688-6.756h1.134a.676.676,0,0,1,.641.74v.69q-7.1,7.1-12.428,7.1h-2.071q-2.515,0-2.515-2.071a7.418,7.418,0,0,1,1.775-4.291l-.345-.74v-.69q.74,0,5.326-4.932Zm-1.43,3.551h.3l1.479-1.43Q310.841-21.65,310.693-20.91Zm9.913-7.841h.345q3.206,0,3.206,3.551a10.223,10.223,0,0,0-1.036,3.255,8.425,8.425,0,0,0,2.515,1.381v1.43a14.007,14.007,0,0,1-1.134,3.551h.395q7.1-4.981,8.137-4.981h.345q.74.1.74.69v.74q-5.967,5.671-9.617,5.671h-.641q-2.515,0-2.515-2.121a26.08,26.08,0,0,0,1.036-3.945l-.69-.345q-6.707,11.737-9.617,18.1h-2.121q-.69,0-.69-.641a183.218,183.218,0,0,1,9.913-19.529q-1.036,0-1.775-3.255v-1.43A3.725,3.725,0,0,1,320.606-28.751Zm-.3,3.255.641.3v-1.036A.642.642,0,0,0,320.31-25.5Zm14.6-3.255h.345q3.206,0,3.206,3.551a10.223,10.223,0,0,0-1.036,3.255,8.425,8.425,0,0,0,2.515,1.381v1.43a14.007,14.007,0,0,1-1.134,3.551h.395q7.1-4.981,8.137-4.981h.345q.74.1.74.69v.74q-5.967,5.671-9.617,5.671h-.641q-2.515,0-2.515-2.121a26.08,26.08,0,0,0,1.036-3.945l-.69-.345q-6.707,11.737-9.617,18.1h-2.121q-.69,0-.69-.641a183.218,183.218,0,0,1,9.913-19.529q-1.036,0-1.775-3.255v-1.43A3.725,3.725,0,0,1,334.908-28.751Zm-.3,3.255.641.3v-1.036A.642.642,0,0,0,334.612-25.5Zm18,1.036h.641q2.91.3,2.91,2.515,0,1.923-7.841,4.192-1.775,3.847-1.775,4.981h.345q4.291-.3,11.688-6.756h1.134a.676.676,0,0,1,.641.74v.69q-7.1,7.1-12.428,7.1h-2.071q-2.515,0-2.515-2.071a7.418,7.418,0,0,1,1.775-4.291l-.345-.74v-.69q.74,0,5.326-4.932Zm-1.43,3.551h.3l1.479-1.43Q351.33-21.65,351.182-20.91Zm10.159-5.425h1.381a2.2,2.2,0,0,1,2.515,2.466q0,1.184-4.636,5.03,1.184,1.332,2.121,5.622,2.515,0,10.652-6.362h1.43q.74.049.74.74v.3A32.963,32.963,0,0,1,362.377-10.7a4.1,4.1,0,0,1-4.241,2.811h-2.121v-1.43a9.981,9.981,0,0,1,3.9-3.156q0-1.923-3.156-8.137v-1.134Q357.84-26.335,361.341-26.335Zm-1.775,4.981a5.913,5.913,0,0,0,2.811-3.206h-.3Q359.566-23.524,359.566-21.354Z" transform="translate(23.968 92.468)" fill="#cfa990"/>
  </g>
</svg>
