<svg xmlns="http://www.w3.org/2000/svg" width="1243.953" height="513.193" viewBox="0 0 1243.953 513.193">
  <g id="Groupe_24" data-name="Groupe 24" transform="translate(-307 -3805.864)">
    <path id="Tracé_32" data-name="Tracé 32" d="M102.557-91.071h1.625q20.43,0,25.692,13.429a36.06,36.06,0,0,1,1.161,7.219v3.338q0,21.58-26.234,48.128A162.369,162.369,0,0,1,88.628-7.779H85.3q-.851,0-1.625-1.63,1.7-5.123,7.739-5.123a80.437,80.437,0,0,0,32.27-43,25.734,25.734,0,0,0,1.78-9.548v-3.338q0-12.731-12.923-16.767a30.89,30.89,0,0,0-7.739-1.087h-3.4q-50.842,0-64.075,67.689Q33.529-3.121,28.5,48.111q22.519-14.9,57.962-26.781h2.167q1.161.078,1.161,1.009v1.785Q54.037,35.3,27.339,54.244,19.6,119.6-16.074,119.6h-.542q-7.352-.7-7.352-5.589v-.466q0-17.466,35.752-52.63,10.6-8.151,10.6-9.47,7.2-72.735,14.935-94.392Q54.5-91.071,102.557-91.071ZM-18.4,111.764v3.416q0,1.63,2.322,1.63,16.483,0,28.942-23.986,8.358-25.306,8.358-34.155Q-5.627,82.81-13.83,99.577-18.4,108.426-18.4,111.764ZM103.1,16.44q1.161.078,1.161,1.009v.621L59.686,122.632q1.083,0,1.083,1.63a16.628,16.628,0,0,1-5.03,6.132H53.572q-1.161,0-1.161-1.708,29.019-68.7,42.33-98.895H94.2a22.9,22.9,0,0,1-7.816,6.676H81.973q-.774,0-1.7-2.251Q83.752,23.659,87,20.865h2.786v1.164L85.378,33.207q3.018-1.863,16.1-16.767Zm50.146-99.671h1.161q1.625,0,1.625,2.174-2.786,8.306-11.763,21.813,0,1.242-9.983,22.356Q105.266,27.23,104.8,39.728a5.352,5.352,0,0,1,.464,1.63h.619q2.863,0,18.882-19.018a5.107,5.107,0,0,1,2.322-.543h.464q1.161.233,1.161,1.164v1.164Q114.242,44.7,104.26,44.7q-3.947,0-3.947-3.8V38.563q0-15.137,50.146-121.251Zm-5.8,90.2,2.167.621v3.338l-4.488,7.219v.621q1.935,3.338,6.733,3.338v1.63a1.028,1.028,0,0,1-1.161,1.164H147.9q-2.322,0-5.572-2.795-11.84,18.4-17.18,18.4h-.619a3.946,3.946,0,0,1-3.947-2.795q2.786-16.068,7.352-20.1l2.786.543v.621q-5.572,15.6-5.572,18.4,4.875-3.959,14.935-17.854-1.006-4.192-1.006-4.5Q142.1,6.97,147.441,6.97Zm19.5-20.26h3.4v3.415a33.3,33.3,0,0,1-6.733,1.63h-1.625q-1.161,0-1.161-1.087Q160.828-10.108,166.942-13.29Zm-13.31,25.772H155.8q.851,0,1.625,1.63v.543q0,1.863-5.572,15.137v2.795A136.54,136.54,0,0,0,168.1,22.029h.464a5.815,5.815,0,0,0,2.322.466V24.2q-9.983,9.315-19.5,12.265h-1.7q-3.4,0-3.4-3.26,0-3.959,6.191-17.931a4.355,4.355,0,0,1-.619-1.63Zm24.531,2.1h1.006q4.566.466,4.566,3.959,0,3.027-12.3,6.6-2.786,6.055-2.786,7.84h.542q6.733-.466,18.34-10.635h1.78a1.062,1.062,0,0,1,1.006,1.164v1.087q-11.143,11.178-19.5,11.178h-3.25q-3.947,0-3.947-3.26,0-3.027,2.786-6.753l-.542-1.164V23.5q1.161,0,8.358-7.763Zm-2.244,5.589h.464l2.322-2.251Q176.15,19,175.918,20.166ZM252.452-34.56l2.786.466v1.164q0,3.338-9.518,18.941L225.677,32.974h.542q5.959-2.251,16.174-11.178h1.161q1.161.233,1.161,1.164v1.164q-11.608,12.187-20.662,12.187l-.619,2.251,1.161,9.548q0,16.612-13.31,42.461-5.34,10.014-9.518,10.014-3.4-.311-3.4-3.338,0-11.333,20.12-59.151-3.4-5.356-3.4-6.753l2.786-.621h.619l2.167,1.785h.619q20.2-48.438,30.025-66.6ZM219.641,46.947a218.578,218.578,0,0,0-16.715,48.671v.543h.464q16.715-29.342,16.715-48.671v-.543Zm32.424-32.37h1.006q4.566.466,4.566,3.959,0,3.027-12.3,6.6-2.786,6.055-2.786,7.84h.542q6.733-.466,18.34-10.635h1.78a1.062,1.062,0,0,1,1.006,1.164v1.087q-11.143,11.178-19.5,11.178h-3.25q-3.947,0-3.947-3.26,0-3.027,2.786-6.753l-.542-1.164V23.5q1.161,0,8.358-7.763Zm-2.244,5.589h.464l2.322-2.251Q250.053,19,249.821,20.166Zm20.894-5.589h1.006q4.566.466,4.566,3.959,0,3.027-12.3,6.6-2.786,6.055-2.786,7.84h.542q6.733-.466,18.34-10.635h1.78a1.062,1.062,0,0,1,1.006,1.164v1.087q-11.143,11.178-19.5,11.178h-3.25q-3.947,0-3.947-3.26,0-3.027,2.786-6.753l-.542-1.164V23.5q1.161,0,8.358-7.763Zm-2.244,5.589h.464l2.322-2.251Q268.7,19,268.471,20.166Zm100.91-71.493h2.167q1.161,0,1.161,1.63l-47.9,112.324a4.18,4.18,0,0,1,.542,1.63l-1.7,1.164h-.464q-3.018,0-3.4-1.708,0-2.95,19.5-47.507-4.953,5.356-4.953,8.927-2.708,0-8.358,5.589-4.1,2.795-6.191,2.795h-3.947a.891.891,0,0,1-1.006-1.009v-.621q.309-7.3,10.524-18.475l2.786-.466h.619q2.089,0,4.953,2.795h.619a329.493,329.493,0,0,0,17.721-32.525q9.518-18.4,16.174-34.078ZM320.4,29.714a24.865,24.865,0,0,0,9.364-9v-.543q-.542-3.416-1.625-3.416Q321.867,23.659,320.4,29.714Zm39.157-15.137h1.006q4.566.466,4.566,3.959,0,3.027-12.3,6.6-2.786,6.055-2.786,7.84h.542q6.733-.466,18.34-10.635h1.78A1.062,1.062,0,0,1,371.7,23.5v1.087Q360.56,35.769,352.2,35.769h-3.25q-3.947,0-3.947-3.26,0-3.027,2.786-6.753l-.542-1.164V23.5q1.161,0,8.358-7.763Zm-2.244,5.589h.464l2.322-2.251Q357.542,19,357.309,20.166Zm15.941-8.539h2.167q3.947,0,3.947,3.881,0,1.863-7.274,7.918,1.857,2.1,3.328,8.849,3.947,0,16.715-10.014h2.244q1.161.078,1.161,1.164v.466a51.692,51.692,0,0,1-20.662,12.342q-1.625,4.425-6.655,4.425h-3.328V38.408a15.672,15.672,0,0,1,6.113-4.968q0-3.027-4.953-12.808V18.847Q367.756,11.627,373.251,11.627Zm-2.786,7.84a9.3,9.3,0,0,0,4.411-5.046h-.464Q370.465,16.052,370.465,19.468ZM544.582-92.468h3.4q16.328,0,23.912,21.813a85.924,85.924,0,0,1,1.7,12.808q0,27.091-26.234,45.256Q529.724-1.957,513.937-1.957h-8.9a71.159,71.159,0,0,1-32.27-7.84v-.543q0-.854,1.625-1.63h1.161q20.275,7.763,32.811,7.763,29.484,0,50.146-25.151a49.331,49.331,0,0,0,9.518-28.954q0-19.484-13.929-29.11a15.806,15.806,0,0,0-8.358-2.251q-14.858,0-37.919,22.356a344.029,344.029,0,0,0-45.657,62.1q-22.287,37.493-49.681,93.228-6.036,11.877-8.822,13.973h-3.947q-1.161,0-1.161-1.009,0-6.21,33.43-78.867,45.27-93.461,48.521-101.146h-.542L478.34-80.2q4.72-7.219,8.358-7.219h2.167q1.161,0,1.161,1.63Q456.595-17.56,425.95,48.344v.543h.464Q498.847-92.468,544.582-92.468ZM492.192-13.29h3.4v3.415a33.3,33.3,0,0,1-6.733,1.63h-1.625q-1.161,0-1.161-1.087Q486.078-10.108,492.192-13.29Zm-13.31,25.772h2.167q.851,0,1.625,1.63v.543q0,1.863-5.572,15.137v2.795a136.538,136.538,0,0,0,16.251-10.557h.464a5.815,5.815,0,0,0,2.322.466V24.2q-9.983,9.315-19.5,12.265h-1.7q-3.4,0-3.4-3.26,0-3.959,6.191-17.931a4.355,4.355,0,0,1-.619-1.63Zm24.531,2.1h1.006q4.566.466,4.566,3.959,0,3.027-12.3,6.6-2.786,6.055-2.786,7.84h.542q6.732-.466,18.34-10.635h1.78a1.062,1.062,0,0,1,1.006,1.164v1.087q-11.144,11.178-19.5,11.178h-3.25q-3.947,0-3.947-3.26,0-3.027,2.786-6.753l-.542-1.164V23.5q1.161,0,8.358-7.763Zm-2.244,5.589h.464l2.322-2.251Q501.4,19,501.169,20.166ZM516.723,7.824h.542q5.03,0,5.03,5.589a16.128,16.128,0,0,0-1.625,5.123q3.25,2.173,3.947,2.173v2.251q0,1.164-1.78,5.589h.619q11.143-7.84,12.769-7.84h.542q1.161.155,1.161,1.087v1.164q-9.364,8.927-15.09,8.927H521.83q-3.947,0-3.947-3.338a41.165,41.165,0,0,0,1.625-6.21l-1.083-.543Q507.9,40.271,503.335,50.285h-3.328q-1.083,0-1.083-1.009a288.725,288.725,0,0,1,15.555-30.74q-1.625,0-2.786-5.123V11.162Q513.705,7.824,516.723,7.824Zm-.464,5.123,1.006.466v-1.63A1.01,1.01,0,0,0,516.259,12.947Zm22.906-5.123h.542q5.03,0,5.03,5.589a16.127,16.127,0,0,0-1.625,5.123q3.25,2.173,3.947,2.173v2.251q0,1.164-1.78,5.589h.619q11.143-7.84,12.769-7.84h.542q1.161.155,1.161,1.087v1.164q-9.364,8.927-15.09,8.927h-1.006q-3.947,0-3.947-3.338a41.148,41.148,0,0,0,1.625-6.21l-1.083-.543q-10.524,18.475-15.09,28.489H522.45q-1.083,0-1.083-1.009a288.732,288.732,0,0,1,15.554-30.74q-1.625,0-2.786-5.123V11.162Q536.147,7.824,539.165,7.824Zm-.464,5.123,1.006.466v-1.63A1.01,1.01,0,0,0,538.7,12.947Zm28.246,1.63h1.006q4.566.466,4.566,3.959,0,3.027-12.3,6.6-2.786,6.055-2.786,7.84h.542q6.733-.466,18.34-10.635h1.78A1.062,1.062,0,0,1,579.1,23.5v1.087q-11.143,11.178-19.5,11.178h-3.25q-3.947,0-3.947-3.26,0-3.027,2.786-6.753l-.542-1.164V23.5q1.161,0,8.358-7.763ZM564.7,20.166h.464l2.322-2.251Q564.934,19,564.7,20.166Zm15.941-8.539h2.167q3.947,0,3.947,3.881,0,1.863-7.274,7.918,1.857,2.1,3.328,8.849,3.947,0,16.715-10.014h2.244q1.161.078,1.161,1.164v.466a51.692,51.692,0,0,1-20.662,12.342q-1.625,4.425-6.655,4.425h-3.328V38.408A15.672,15.672,0,0,1,578.4,33.44q0-3.027-4.953-12.808V18.847Q575.149,11.627,580.643,11.627Zm-2.786,7.84a9.3,9.3,0,0,0,4.411-5.046H581.8Q577.857,16.052,577.857,19.468Z" transform="translate(343.604 3981.344) rotate(-8)" fill="#cfa990" opacity="0.19"/>
    <path id="Icon_awesome-envelope" data-name="Icon awesome-envelope" d="M298.577,76.062a3.6,3.6,0,0,1,5.766,2.653V194.129c0,14.956-12.78,27.09-28.532,27.09H28.532C12.78,221.219,0,209.085,0,194.129V78.771a3.573,3.573,0,0,1,5.766-2.653c13.315,9.82,30.969,22.293,91.6,64.113,12.542,8.691,33.7,26.977,54.806,26.864,21.221.169,42.8-18.511,54.865-26.864C267.668,98.411,285.262,85.882,298.577,76.062ZM152.172,148.979c13.791.226,33.644-16.48,43.63-23.365,78.88-54.349,84.883-59.09,103.073-72.635a13.27,13.27,0,0,0,5.469-10.667V31.59c0-14.956-12.78-27.09-28.532-27.09H28.532C12.78,4.5,0,16.634,0,31.59V42.313A13.35,13.35,0,0,0,5.469,52.98c18.189,13.488,24.193,18.286,103.072,72.635C118.527,132.5,138.381,149.2,152.172,148.979Z" transform="matrix(0.891, -0.454, 0.454, 0.891, 1178.005, 4120.604)" fill="none" stroke="#cfa990" stroke-width="2" opacity="0.19"/>
    <path id="Icon_awesome-phone" data-name="Icon awesome-phone" d="M168.288,8.393,132.817.208a8.239,8.239,0,0,0-9.38,4.741l-16.372,38.2a8.165,8.165,0,0,0,2.353,9.55l20.669,16.917A126.406,126.406,0,0,1,69.65,130.054L52.733,109.385a8.177,8.177,0,0,0-9.55-2.353L4.982,123.4a8.283,8.283,0,0,0-4.775,9.414l8.186,35.472a8.183,8.183,0,0,0,7.981,6.344A158.241,158.241,0,0,0,174.632,16.374,8.176,8.176,0,0,0,168.288,8.393Z" transform="translate(1278.001 3854.001)" fill="none" stroke="#cfa990" stroke-width="2" opacity="0.19"/>
    <path id="Icon_awesome-map-marker-alt" data-name="Icon awesome-map-marker-alt" d="M78.4,228.3C12.273,132.442,0,122.6,0,87.375a87.375,87.375,0,0,1,174.75,0c0,35.229-12.273,45.067-78.4,140.924a10.927,10.927,0,0,1-17.959,0Zm8.98-104.518A36.406,36.406,0,1,0,50.969,87.375,36.406,36.406,0,0,0,87.375,123.781Z" transform="translate(1006.411 3888.598) rotate(-14)" fill="none" stroke="#cfa990" stroke-width="2" opacity="0.19"/>
  </g>
</svg>
