<svg xmlns="http://www.w3.org/2000/svg" width="23.92" height="23" viewBox="0 0 23.92 23">
  <path id="Icon_ionic-ios-heart-empty" data-name="Icon ionic-ios-heart-empty" d="M20.855,3.937H20.8a6.543,6.543,0,0,0-5.462,2.99,6.543,6.543,0,0,0-5.462-2.99H9.815a6.5,6.5,0,0,0-6.44,6.5,14,14,0,0,0,2.748,7.63,48.166,48.166,0,0,0,9.211,8.872,48.166,48.166,0,0,0,9.212-8.872,14,14,0,0,0,2.748-7.63A6.5,6.5,0,0,0,20.855,3.937Zm2.392,13.179a44.1,44.1,0,0,1-7.912,7.8,44.168,44.168,0,0,1-7.912-7.8,12.4,12.4,0,0,1-2.438-6.676A4.879,4.879,0,0,1,9.826,5.553h.052a4.821,4.821,0,0,1,2.363.621A5.024,5.024,0,0,1,13.99,7.813a1.615,1.615,0,0,0,2.7,0A5.075,5.075,0,0,1,18.44,6.174,4.821,4.821,0,0,1,20.8,5.553h.052A4.879,4.879,0,0,1,25.7,10.435,12.562,12.562,0,0,1,23.247,17.117Z" transform="translate(-3.375 -3.938)" fill="#cfa990"/>
</svg>
