<svg xmlns="http://www.w3.org/2000/svg" width="18.875" height="18.871" viewBox="0 0 18.875 18.871">
  <path id="Icon_awesome-instagram" data-name="Icon awesome-instagram" d="M9.434,6.835a4.838,4.838,0,1,0,4.838,4.838A4.831,4.831,0,0,0,9.434,6.835Zm0,7.984a3.146,3.146,0,1,1,3.146-3.146A3.151,3.151,0,0,1,9.434,14.819ZM15.6,6.637a1.129,1.129,0,1,1-1.129-1.129A1.126,1.126,0,0,1,15.6,6.637Zm3.2,1.145a5.585,5.585,0,0,0-1.524-3.954A5.621,5.621,0,0,0,13.325,2.3c-1.558-.088-6.228-.088-7.786,0a5.613,5.613,0,0,0-3.954,1.52A5.6,5.6,0,0,0,.061,7.778c-.088,1.558-.088,6.228,0,7.786a5.585,5.585,0,0,0,1.524,3.954,5.629,5.629,0,0,0,3.954,1.524c1.558.088,6.228.088,7.786,0a5.585,5.585,0,0,0,3.954-1.524A5.621,5.621,0,0,0,18.8,15.564c.088-1.558.088-6.224,0-7.782Zm-2.013,9.453A3.185,3.185,0,0,1,15,19.029c-1.242.493-4.19.379-5.563.379s-4.325.109-5.563-.379a3.185,3.185,0,0,1-1.794-1.794c-.493-1.242-.379-4.19-.379-5.563s-.109-4.325.379-5.563A3.185,3.185,0,0,1,3.872,4.317c1.242-.493,4.19-.379,5.563-.379s4.325-.109,5.563.379a3.185,3.185,0,0,1,1.794,1.794c.493,1.242.379,4.19.379,5.563S17.283,16,16.791,17.236Z" transform="translate(0.005 -2.238)" fill="#fafafa"/>
</svg>
