<svg id="Calque_2" data-name="Calque 2" xmlns="http://www.w3.org/2000/svg" width="419.29" height="360.634" viewBox="0 0 419.29 360.634">
  <g id="Calque_1" data-name="Calque 1" transform="translate(0.154)">
    <path id="Tracé_31" data-name="Tracé 31" d="M59.47-96.114h1.087q13.664,0,17.184,8.954a23.975,23.975,0,0,1,.776,4.813v2.226q0,14.389-17.546,32.09a108.606,108.606,0,0,1-10.817,7.453H47.928q-.569,0-1.087-1.087,1.139-3.416,5.176-3.416A53.649,53.649,0,0,0,73.6-73.755a17.111,17.111,0,0,0,1.19-6.366v-2.226q0-8.488-8.644-11.18a20.72,20.72,0,0,0-5.176-.725H58.693q-34,0-42.855,45.133Q13.3-37.473,9.938-3.312,25-13.25,48.7-21.169h1.449q.776.052.776.673v1.19Q27.018-11.853,9.161.776q-5.176,43.58-29.036,43.58h-.362q-4.917-.466-4.917-3.727v-.311q0-11.646,23.912-35.092Q5.849-.207,5.849-1.087q4.813-48.5,9.989-62.937Q27.328-96.114,59.47-96.114Zm-80.9,135.243v2.277q0,1.087,1.553,1.087,11.024,0,19.357-15.993Q5.072,9.627,5.072,3.727-12.888,19.823-18.374,31-21.428,36.9-21.428,39.129ZM59.832-24.43q.776.052.776.673v.414L30.8,46.375q.725,0,.725,1.087a11.094,11.094,0,0,1-3.364,4.089H26.707q-.776,0-.776-1.139Q45.34,4.606,54.242-15.527H53.88a15.3,15.3,0,0,1-5.228,4.451H45.7q-.518,0-1.139-1.5,2.329-7.039,4.5-8.9H50.93v.776l-2.95,7.453Q50-14.492,58.745-24.43ZM93.371-90.887h.776q1.087,0,1.087,1.449Q93.371-83.9,87.367-74.894q0,.828-6.677,14.906Q61.281-17.235,60.971-8.9a3.56,3.56,0,0,1,.311,1.087H61.7q1.915,0,12.629-12.681a3.424,3.424,0,0,1,1.553-.362h.311q.776.155.776.776v.776Q67.285-5.59,60.608-5.59q-2.64,0-2.64-2.536V-9.679q0-10.093,33.539-80.846ZM89.489-30.744l1.449.414V-28.1l-3,4.813v.414q1.294,2.226,4.5,2.226v1.087a.686.686,0,0,1-.776.776H89.8a6.259,6.259,0,0,1-3.727-1.863Q78.154-8.385,74.583-8.385h-.414a2.639,2.639,0,0,1-2.64-1.863q1.863-10.714,4.917-13.405l1.863.362v.414q-3.727,10.4-3.727,12.267,3.261-2.64,9.989-11.9-.673-2.795-.673-3Q85.918-30.744,89.489-30.744Zm13.043-13.509h2.277v2.277a22.33,22.33,0,0,1-4.5,1.087H99.22q-.776,0-.776-.725Q98.443-42.131,102.532-44.253Zm-8.9,17.184h1.449q.569,0,1.087,1.087v.362q0,1.242-3.727,10.093v1.863A91.355,91.355,0,0,0,103.309-20.7h.311a3.9,3.9,0,0,0,1.553.311v1.139Q98.5-13.043,92.129-11.076H90.99q-2.277,0-2.277-2.174,0-2.64,4.141-11.956a2.9,2.9,0,0,1-.414-1.087Zm16.407,1.4h.673q3.054.311,3.054,2.64,0,2.019-8.229,4.4-1.863,4.037-1.863,5.228h.362q4.5-.311,12.267-7.091h1.19a.709.709,0,0,1,.673.776V-19q-7.453,7.453-13.043,7.453h-2.174q-2.64,0-2.64-2.174a7.785,7.785,0,0,1,1.863-4.5L101.808-19v-.725q.776,0,5.59-5.176Zm-1.5,3.727h.311l1.553-1.5Q108.691-22.722,108.536-21.945Zm51.188-36.489,1.863.311v.776q0,2.226-6.366,12.629L141.816-13.405h.362q3.985-1.5,10.817-7.453h.776q.776.155.776.776v.776q-7.764,8.126-13.819,8.126l-.414,1.5.776,6.366q0,11.076-8.9,28.312-3.571,6.677-6.366,6.677-2.277-.207-2.277-2.226,0-7.557,13.457-39.439-2.277-3.571-2.277-4.5l1.863-.414H137l1.449,1.19h.414q13.509-32.3,20.082-44.408ZM137.779-4.089A145.433,145.433,0,0,0,126.6,28.363v.362h.311Q138.09,9.161,138.09-3.727v-.362Zm21.687-21.583h.673q3.054.311,3.054,2.64,0,2.019-8.229,4.4Q153.1-14.6,153.1-13.405h.362q4.5-.311,12.267-7.091h1.19a.709.709,0,0,1,.673.776V-19q-7.453,7.453-13.043,7.453h-2.174q-2.64,0-2.64-2.174a7.785,7.785,0,0,1,1.863-4.5L151.236-19v-.725q.776,0,5.59-5.176Zm-1.5,3.727h.311l1.553-1.5Q158.12-22.722,157.965-21.945Zm13.975-3.727h.673q3.054.311,3.054,2.64,0,2.019-8.229,4.4-1.863,4.037-1.863,5.228h.362q4.5-.311,12.267-7.091h1.19a.709.709,0,0,1,.673.776V-19q-7.453,7.453-13.043,7.453h-2.174q-2.64,0-2.64-2.174a7.785,7.785,0,0,1,1.863-4.5L163.71-19v-.725q.776,0,5.59-5.176Zm-1.5,3.727h.311l1.553-1.5Q170.594-22.722,170.438-21.945Zm67.492-47.669h1.449q.776,0,.776,1.087L208.118,6.366a2.781,2.781,0,0,1,.362,1.087l-1.139.776h-.311q-2.019,0-2.277-1.139,0-1.967,13.043-31.676-3.312,3.571-3.312,5.952-1.812,0-5.59,3.727-2.743,1.863-4.141,1.863h-2.64a.6.6,0,0,1-.673-.673v-.414q.207-4.865,7.039-12.318l1.863-.311h.414q1.4,0,3.313,1.863h.414a219.493,219.493,0,0,0,11.853-21.687Q232.7-58.849,237.154-69.3ZM205.168-15.579a16.609,16.609,0,0,0,6.263-6v-.362q-.362-2.277-1.087-2.277Q206.151-19.616,205.168-15.579Zm26.189-10.093h.673q3.054.311,3.054,2.64,0,2.019-8.229,4.4-1.863,4.037-1.863,5.228h.362q4.5-.311,12.267-7.091h1.19a.709.709,0,0,1,.673.776V-19q-7.453,7.453-13.043,7.453h-2.174q-2.64,0-2.64-2.174a7.785,7.785,0,0,1,1.863-4.5L223.128-19v-.725q.776,0,5.59-5.176Zm-1.5,3.727h.311l1.553-1.5Q230.012-22.722,229.856-21.945Zm10.662-5.693h1.449a2.311,2.311,0,0,1,2.64,2.588q0,1.242-4.865,5.279,1.242,1.4,2.226,5.9,2.64,0,11.18-6.677h1.5q.776.052.776.776v.311a34.6,34.6,0,0,1-13.819,8.229,4.3,4.3,0,0,1-4.451,2.95h-2.226v-1.5a10.475,10.475,0,0,1,4.089-3.312q0-2.019-3.312-8.54v-1.19Q236.844-27.639,240.519-27.639Zm-1.863,5.228a6.205,6.205,0,0,0,2.95-3.364h-.311Q238.655-24.688,238.655-22.411ZM355.11-97.046h2.277q10.921,0,15.993,14.544a57.124,57.124,0,0,1,1.139,8.54q0,18.063-17.546,30.175-11.8,7.091-22.359,7.091h-5.952a47.713,47.713,0,0,1-21.583-5.228v-.362q0-.569,1.087-1.087h.776Q322.5-38.2,330.888-38.2q19.72,0,33.539-16.77a32.824,32.824,0,0,0,6.366-19.306q0-12.991-9.316-19.409a10.6,10.6,0,0,0-5.59-1.5q-9.937,0-25.361,14.906A229.429,229.429,0,0,0,299.988-38.87q-14.906,25-33.229,62.161-4.037,7.919-5.9,9.316h-2.64q-.776,0-.776-.673,0-4.141,22.359-52.586,30.278-62.316,32.452-67.44h-.362l-1.087-.776q3.157-4.813,5.59-4.813h1.449q.776,0,.776,1.087Q296.262-47.1,275.766-3.157v.362h.311Q324.521-97.046,355.11-97.046ZM320.07-44.253h2.277v2.277a22.33,22.33,0,0,1-4.5,1.087h-1.087q-.776,0-.776-.725Q315.981-42.131,320.07-44.253Zm-8.9,17.184h1.449q.569,0,1.087,1.087v.362q0,1.242-3.727,10.093v1.863A91.356,91.356,0,0,0,320.847-20.7h.311a3.9,3.9,0,0,0,1.553.311v1.139q-6.677,6.211-13.043,8.178h-1.139q-2.277,0-2.277-2.174,0-2.64,4.141-11.956a2.9,2.9,0,0,1-.414-1.087Zm16.407,1.4h.673q3.054.311,3.054,2.64,0,2.019-8.229,4.4-1.863,4.037-1.863,5.228h.362q4.5-.311,12.267-7.091h1.19a.709.709,0,0,1,.673.776V-19q-7.453,7.453-13.043,7.453h-2.174q-2.64,0-2.64-2.174a7.785,7.785,0,0,1,1.863-4.5L319.346-19v-.725q.776,0,5.59-5.176Zm-1.5,3.727h.311l1.553-1.5Q326.229-22.722,326.074-21.945Zm10.4-8.229h.362q3.364,0,3.364,3.727a10.729,10.729,0,0,0-1.087,3.416,8.843,8.843,0,0,0,2.64,1.449v1.5a14.7,14.7,0,0,1-1.19,3.727h.414q7.453-5.228,8.54-5.228h.362q.776.1.776.725v.776Q344.4-14.13,340.566-14.13h-.673q-2.64,0-2.64-2.226a27.371,27.371,0,0,0,1.087-4.141l-.725-.362q-7.039,12.318-10.093,19H325.3q-.725,0-.725-.673a192.288,192.288,0,0,1,10.4-20.5q-1.087,0-1.863-3.416v-1.5A3.91,3.91,0,0,1,336.478-30.175Zm-.311,3.416.673.311v-1.087A.674.674,0,0,0,336.167-26.759Zm15.32-3.416h.362q3.364,0,3.364,3.727a10.729,10.729,0,0,0-1.087,3.416,8.843,8.843,0,0,0,2.64,1.449v1.5a14.7,14.7,0,0,1-1.19,3.727h.414q7.453-5.228,8.54-5.228h.362q.776.1.776.725v.776q-6.263,5.952-10.093,5.952H354.9q-2.64,0-2.64-2.226a27.371,27.371,0,0,0,1.087-4.141l-.725-.362q-7.039,12.318-10.093,19h-2.226q-.725,0-.725-.673a192.288,192.288,0,0,1,10.4-20.5q-1.087,0-1.863-3.416v-1.5A3.91,3.91,0,0,1,351.487-30.175Zm-.311,3.416.673.311v-1.087A.674.674,0,0,0,351.177-26.759Zm18.892,1.087h.673q3.054.311,3.054,2.64,0,2.019-8.229,4.4Q363.7-14.6,363.7-13.405h.362q4.5-.311,12.267-7.091h1.19a.709.709,0,0,1,.673.776V-19q-7.453,7.453-13.043,7.453h-2.174q-2.64,0-2.64-2.174a7.785,7.785,0,0,1,1.863-4.5L361.839-19v-.725q.776,0,5.59-5.176Zm-1.5,3.727h.311l1.553-1.5Q368.723-22.722,368.567-21.945Zm10.662-5.693h1.449a2.311,2.311,0,0,1,2.64,2.588q0,1.242-4.865,5.279,1.242,1.4,2.226,5.9,2.64,0,11.18-6.677h1.5q.776.052.776.776v.311a34.6,34.6,0,0,1-13.819,8.229,4.3,4.3,0,0,1-4.451,2.95H373.64v-1.5a10.475,10.475,0,0,1,4.089-3.312q0-2.019-3.312-8.54v-1.19Q375.555-27.639,379.229-27.639Zm-1.863,5.228a6.205,6.205,0,0,0,2.95-3.364h-.311Q377.366-24.688,377.366-22.411Z" transform="translate(25 304.388)" fill="#fafafa"/>
    <path id="Tracé_1" data-name="Tracé 1" d="M312.45,14.294,302.7,10.713c-.094,0-4.711-.283-10.365-.534L233.375,7.541a60.605,60.605,0,0,0-19.741,3.141L61.3,66.67A50.13,50.13,0,0,0,44.837,77.663L22.928,101.441a9.423,9.423,0,0,0,1.052,13.868L164.525,227.85a15.03,15.03,0,0,0,16.475.8L337.609,126.38l8.795-5.748c.141-.094,2.513-4.178,5.245-9.077l33.436-59.8A8.465,8.465,0,0,0,380.5,39.343Zm-98.031,1.57A60.574,60.574,0,0,1,234.145,12.8L285.72,15.11c5.591.251,6.942,3.706,2.968,7.664L231.8,79.674a10.993,10.993,0,0,1-14.778.408l-43.88-39.42c-4.162-3.738-3.282-8.386,1.979-10.318Zm-3.628,85.262c4.916-2.7,7.3-.628,5.308,4.6L175.424,212.679c-1.995,5.23-6.5,5.968-10.035,1.57l-65.3-80.441c-3.534-4.35-1.916-7.13,3.612-6.172l34.787,6.031a34.017,34.017,0,0,0,18.956-3.141Zm-54.261,23.856a33.907,33.907,0,0,1-18.956,3.141l-35.949-6.282c-5.512-.958-7.523-5.575-4.445-10.255l39.812-60.747a34.645,34.645,0,0,1,14.292-11.716c4.806-1.759,12.124-.141,16.3,3.6l45.058,40.456c4.146,3.753,3.549,9.015-1.366,11.716ZM75.76,122.517a32.635,32.635,0,0,1,16.4,9.91l64.72,79.766c3.534,4.35,2.827,5.041-1.571,1.571L37.927,119.769c-4.366-3.5-3.455-5.465,2.042-4.366Zm147-19.4A12,12,0,0,1,236.3,95.913L328.2,117.444c5.45,1.272,6.078,4.821,1.382,7.852L184.69,219.935c-4.711,3.062-6.894,1.272-4.916-3.958ZM47.868,82.077A50.256,50.256,0,0,1,64.311,71.083l60.417-22.191c5.261-1.932,7.052.314,3.973,5.01L91.544,110.66a16.3,16.3,0,0,1-15.564,6.518l-40.99-8.2c-5.5-1.1-6.894-5.371-3.141-9.423Zm300.484,24.61a14.354,14.354,0,0,1-14.888,6.58L239.846,91.28c-5.45-1.272-6.675-5.56-2.7-9.517L295.457,23.45a17.4,17.4,0,0,1,16.757-3.691L372.9,42.092A8.449,8.449,0,0,1,377.484,54.5Z" transform="translate(11.246 4.301)" fill="#fafafa"/>
    <path id="Tracé_2" data-name="Tracé 2" d="M59.172,48.528c1.131-.534,2.057-5.544,2.057-11.151v-23.1A10.208,10.208,0,0,1,71.406,4.1H292.752c5.607,0,10.177,1.79,10.177,3.973s.927,4.35,2.057,4.821,2.042-2.23,2.042-6.015S302.458,0,296.851,0H67.323A10.224,10.224,0,0,0,57.13,10.193v29.07C57.13,44.916,58.057,49.062,59.172,48.528Z" transform="translate(32.216)" fill="#fafafa"/>
    <path id="Tracé_3" data-name="Tracé 3" d="M59.784,135.148c.8.2,1.445-4.225,1.445-9.831v-.958c0-5.607-.927-10.993-2.057-11.873S57.13,115.392,57.13,121v3.361C57.13,129.981,59,134.929,59.784,135.148Z" transform="translate(32.216 64.101)" fill="#fafafa"/>
    <path id="Tracé_4" data-name="Tracé 4" d="M216.483,150.08c.691-.927,1.256-6.282,1.256-11.857V102.73c0-5.607-.911-9.5-2.042-8.669s-2.057,6.094-2.057,11.7v37.99C213.64,149.358,215.776,151.007,216.483,150.08Z" transform="translate(121.504 53.598)" fill="#fafafa"/>
    <path id="Tracé_5" data-name="Tracé 5" d="M305.065,211.609c-1.131.534-2.057,5.544-2.057,11.151V239.2c0,2.183-4.57,3.973-10.177,3.973H71.406A10.208,10.208,0,0,1,61.229,233V209.9c0-5.607-.927-10.617-2.057-11.151s-2.042,3.612-2.042,9.219V237.1a10.224,10.224,0,0,0,10.193,10.177H296.851c5.434,0,9.91-2.921,10.177-6.549h0V220.812C307.028,215.221,306.117,211.075,305.065,211.609Z" transform="translate(32.216 113.358)" fill="#fafafa"/>
  </g>
</svg>
