<svg xmlns="http://www.w3.org/2000/svg" width="66.083" height="40.74" viewBox="0 0 66.083 40.74">
  <path id="Tracé_6" data-name="Tracé 6" d="M72.312,8.74,70.578,8.1c-.017,0-.838-.05-1.843-.095L58.25,7.539A10.777,10.777,0,0,0,54.74,8.1L27.65,18.054a8.915,8.915,0,0,0-2.927,1.955l-3.9,4.228a1.676,1.676,0,0,0,.187,2.466L46.007,46.716a2.673,2.673,0,0,0,2.93.142l27.85-18.187L78.35,27.65c.025-.017.447-.743.933-1.614L85.229,15.4a1.505,1.505,0,0,0-.815-2.206ZM54.88,9.019a10.772,10.772,0,0,1,3.508-.545l9.172.411c.994.045,1.234.659.528,1.363L57.971,20.366a1.955,1.955,0,0,1-2.628.073l-7.8-7.01a1,1,0,0,1,.352-1.835Zm-.645,15.162c.874-.48,1.3-.112.944.818L47.945,44.019a.952.952,0,0,1-1.785.279l-11.612-14.3c-.628-.774-.341-1.268.642-1.1l6.186,1.072a6.049,6.049,0,0,0,3.371-.559Zm-9.649,4.242a6.03,6.03,0,0,1-3.371.559l-6.393-1.117a1.1,1.1,0,0,1-.79-1.824l7.08-10.8a6.161,6.161,0,0,1,2.541-2.083,3.184,3.184,0,0,1,2.9.64l8.013,7.194a1.208,1.208,0,0,1-.243,2.083Zm-14.363-.438a5.8,5.8,0,0,1,2.916,1.762L44.647,43.932c.628.774.5.9-.279.279L23.494,27.5c-.776-.623-.614-.972.363-.776Zm26.141-3.449a2.134,2.134,0,0,1,2.407-1.282l16.343,3.829c.969.226,1.081.857.246,1.4L49.593,45.309c-.838.545-1.226.226-.874-.7Zm-31.1-3.742a8.937,8.937,0,0,1,2.924-1.955L38.93,14.893c.936-.344,1.254.056.707.891L33.029,25.877a2.9,2.9,0,0,1-2.768,1.159l-7.289-1.458c-.977-.2-1.226-.955-.559-1.676ZM78.7,25.17a2.553,2.553,0,0,1-2.648,1.17L59.4,22.43c-.969-.226-1.187-.989-.48-1.692l10.37-10.37a3.094,3.094,0,0,1,2.98-.656l10.791,3.971a1.5,1.5,0,0,1,.815,2.206Z" transform="translate(-19.872 -7.039)" fill="#fafafa" stroke="#fafafa" stroke-width="1"/>
</svg>
