<svg xmlns="http://www.w3.org/2000/svg" width="21.561" height="21.562" viewBox="0 0 21.561 21.562">
  <path id="Icon_simple-messenger" data-name="Icon simple-messenger" d="M0,10.456A10.4,10.4,0,0,1,10.779,0a10.4,10.4,0,0,1,10.78,10.456,10.4,10.4,0,0,1-10.78,10.456A11.765,11.765,0,0,1,7.662,20.5a.862.862,0,0,0-.575.045l-2.147.943a.862.862,0,0,1-1.213-.764L3.665,18.8a.871.871,0,0,0-.287-.611A10.232,10.232,0,0,1,0,10.456ZM7.473,8.489,4.311,13.52a.506.506,0,0,0,.737.674l3.4-2.578a.634.634,0,0,1,.782,0L11.749,13.5a1.622,1.622,0,0,0,2.336-.431L17.247,8.04a.507.507,0,0,0-.737-.674l-3.4,2.578a.621.621,0,0,1-.773,0L9.818,8.058a1.617,1.617,0,0,0-2.345.431Z" transform="translate(0.002)" fill="#fafafa"/>
</svg>
