<svg xmlns="http://www.w3.org/2000/svg" width="16.17" height="21.017" viewBox="0 0 16.17 21.017">
  <path id="Icon_awesome-pinterest-p" data-name="Icon awesome-pinterest-p" d="M8.59.457C4.27.457,0,3.337,0,8c0,2.964,1.667,4.649,2.678,4.649.417,0,.657-1.162.657-1.491,0-.392-1-1.225-1-2.855A5.691,5.691,0,0,1,8.249,2.516c2.868,0,4.99,1.63,4.99,4.624,0,2.236-.9,6.43-3.8,6.43a1.87,1.87,0,0,1-1.945-1.844C7.491,10.134,8.6,8.592,8.6,6.95c0-2.788-3.954-2.282-3.954,1.086a4.947,4.947,0,0,0,.4,2.135c-.581,2.5-1.769,6.228-1.769,8.8,0,.8.114,1.579.189,2.375.143.16.072.143.291.063,2.122-2.905,2.046-3.474,3.007-7.276a3.415,3.415,0,0,0,2.918,1.516c4.472,0,6.48-4.358,6.48-8.287C16.17,3.186,12.557.457,8.59.457Z" transform="translate(0 -0.457)" fill="#fafafa"/>
</svg>
