<svg xmlns="http://www.w3.org/2000/svg" width="248.705" height="31.373" viewBox="0 0 248.705 31.373">
  <g id="Groupe_8" data-name="Groupe 8" transform="translate(59.74 -326.9)">
    <g id="Groupe_1" data-name="Groupe 1" transform="translate(116.507 333.3)">
      <path id="Tracé_7" data-name="Tracé 7" d="M1072.788,375.943a.918.918,0,0,0-.752-.9,6.28,6.28,0,0,1-2.686-1.592c-1.575-1.495-2.649-3.447-4.433-4.76a9.352,9.352,0,0,0-8.936-1.419,9.4,9.4,0,0,1-4.572-.007c-.993-.2-1.978-.481-2.991-.592a5.2,5.2,0,0,0-1.739.189,7.353,7.353,0,0,0-2.968.954c-2.048,1.184-3.434,3.038-4.888,4.82a7.165,7.165,0,0,1-3.294,2.376c-.516.172-.827.374-.9.934a.972.972,0,0,0,.825,1.164,6.251,6.251,0,0,1,2.772,1.746c1.271,1.249,2.23,2.763,3.509,4.01a8.859,8.859,0,0,0,9.268,2.093,8.124,8.124,0,0,1,2.215-.274c.678-.011,1.36.027,2.033-.035a1.079,1.079,0,0,1,.588.086,9.046,9.046,0,0,0,6.238.3c2.368-.6,3.86-2.329,5.31-4.082,1.352-1.634,2.6-3.35,4.8-3.949C1072.722,376.863,1072.814,376.445,1072.788,375.943Zm-18.781-7.786a7.835,7.835,0,0,1,6.147,3.332h-12.87A7.822,7.822,0,0,1,1054.006,368.157Zm-3.724,9.259-2.941-5.09h6.122a4.532,4.532,0,0,0-1.415.989.544.544,0,0,0-.066.784c.239.293.5.079.711-.045.292-.175.537-.425.812-.63a.482.482,0,0,1,.708.017.5.5,0,0,1,.06.768c-.391.484-.7,1.051-1.42,1.172a.631.631,0,0,0-.5.859c.132.469.54.273.781.152a2.214,2.214,0,0,1,1.517-.027,1.149,1.149,0,0,1,1.061,1.255,1.533,1.533,0,0,1-1.323,1.276,2.784,2.784,0,0,1-2.516-1.229,2.659,2.659,0,0,1-.335-.531.763.763,0,0,0-.9-.483C1050.187,376.734,1050.556,377.169,1050.282,377.416Zm4.559-2.106c.828-1.4.8-2.14-.246-2.987h5.489l-3.337,5.81C1056.6,376.4,1056.406,376.131,1054.841,375.31Zm-9.879,8.738a8.487,8.487,0,0,1-3.252-2.428c-1.365-1.529-2.48-3.3-4.23-4.462a4.956,4.956,0,0,0-1.771-.833c-.147-.029-.255-.061-.259-.231s.082-.213.233-.257c2.248-.663,3.531-2.457,4.987-4.111,1.547-1.758,3.123-3.548,5.662-3.994a8.136,8.136,0,0,1,4.188.138,1.961,1.961,0,0,1-1.26.3,7.934,7.934,0,0,0-6,1.677c-1.647,1.375-2.748,3.221-4.3,4.672a22.935,22.935,0,0,1-2.132,1.591,8.6,8.6,0,0,1,2.908,2.347c.82.895,1.538,1.882,2.353,2.782a7.114,7.114,0,0,0,4.529,2.656,8.22,8.22,0,0,0,2.912,0c.351-.086.679.165,1.116.338A8.17,8.17,0,0,1,1044.961,384.048Zm1.94-4a7.184,7.184,0,0,1-.325-7.189c.514.629,6.071,10.281,6.345,11.045A7.61,7.61,0,0,1,1046.9,380.05Zm6.81,3.315-3.147-5.45c1.477,1.773,3.149,2.692,5.584,1.258Zm.7.5,6.433-11.142a7.5,7.5,0,0,1-.144,7.008A7.687,7.687,0,0,1,1054.411,383.869Zm17.532-7.829c-.015.158-.175.231-.343.286a9.4,9.4,0,0,0-4.368,3.471,14.5,14.5,0,0,1-3.918,3.816,7.422,7.422,0,0,1-4.993.936,3.318,3.318,0,0,1-1.428-.283,1.447,1.447,0,0,1,1.259-.3c2.233.579,5.677-.83,7.086-2.628a20.455,20.455,0,0,1,4.426-4.705c.259-.174.539-.318.894-.525a16.624,16.624,0,0,1-2.544-2.026c-1.183-1.224-2.189-2.6-3.42-3.788a7.409,7.409,0,0,0-6.673-2.034,1.031,1.031,0,0,1-.6-.134c-.19-.078-.377-.165-.559-.245a8.215,8.215,0,0,1,5.558.228,7.519,7.519,0,0,1,2.432,1.572c1.5,1.294,2.608,2.947,4,4.339a7.336,7.336,0,0,0,2.769,1.78C1071.67,375.846,1071.971,375.738,1071.943,376.04Z" transform="translate(-1034.617 -366.636)" fill="#fafafa"/>
      <path id="Tracé_8" data-name="Tracé 8" d="M1140.974,383.918a2.49,2.49,0,0,0,2-1.344.479.479,0,0,0-.167-.7c-.272-.151-.458.039-.609.23-.221.282-.316.7-.787.695h0l.013-.011h-.008l0,.006c-.806.535-1.278.409-1.926-.508-.182-.258-.363-.616-.742-.4-.4.235-.23.611-.049.908A2.226,2.226,0,0,0,1140.974,383.918Z" transform="translate(-1121.767 -379.373)" fill="#fafafa"/>
      <path id="Tracé_9" data-name="Tracé 9" d="M1149.5,379.8c-.468.024-.781.195-.772.687s.339.693.812.666c.153-.009.305-.038.458-.059a1.317,1.317,0,0,0,.177-.579C1150.2,380.014,1150.043,379.769,1149.5,379.8Z" transform="translate(-1130.353 -377.676)" fill="#fafafa"/>
    </g>
    <g id="Groupe_2" data-name="Groupe 2" transform="translate(82.58 327.168)">
      <path id="Tracé_10" data-name="Tracé 10" d="M853.862,343.187c-.746-.5-1.255-1.239-1.947-1.783-.193-.152-.224-.275-.108-.439.51-.72.514-1.67,1.128-2.359.264-.3.324-.874-.235-.94a15.929,15.929,0,0,1-2.6-.97c-.135-.039-.424-.037-.341-.232.393-.926-.369-1.906.159-2.81a.482.482,0,0,0-.093-.647.5.5,0,0,0-.716-.068,1.328,1.328,0,0,1-.845.185c-.6-.058-1.191-.326-1.8-.029a.206.206,0,0,1-.287-.189c-.127-.987-.957-1.709-1-2.739a.437.437,0,0,0-.762-.316c-.751.66-1.8.645-2.568,1.225-.172.13-.253.07-.373-.095a25.88,25.88,0,0,1-1.913-2.149.494.494,0,0,0-.9.039c-.347.954-1.422,1.208-1.834,2.069-.046.1-.17.26-.316.141-.738-.6-1.785-.5-2.51-1.161a.565.565,0,0,0-1.005.417c-.01.635-.424,1.087-.559,1.642-.2.841-.536,1.186-1.5,1.033-.612-.1-1.256.166-1.928-.143-.449-.207-.793.239-.671.695a19.254,19.254,0,0,1,.15,2.789c.015.128.1.275-.114.293-1.029.089-1.77.968-2.835,1-.534.015-.616.479-.314.8.71.754.7,1.837,1.3,2.626.064.083.148.187,0,.244-.951.357-1.193,1.493-2.117,1.9-.494.216-.615.683-.114.965a13.847,13.847,0,0,1,2,1.817c.117.1.3.244.186.4-.548.763-.48,1.813-1.17,2.5-.4.4-.173.864.168.863,1.05,0,1.765.9,2.782.9.164,0,.284.008.241.269a23.355,23.355,0,0,1-.164,2.788c-.172.6.14.936.721.767a8.518,8.518,0,0,1,1.91-.13c.654-.043,1.285-.167,1.349.857.038.609.634,1.086.667,1.769.036.726.541.987,1.061.509.683-.629,1.678-.518,2.346-1.128.158-.144.3.015.4.132a13.126,13.126,0,0,1,1.831,1.995c.2.348.669.6.875.15.434-.944,1.485-1.294,1.929-2.195.052-.105.077-.345.32-.156.782.611,1.877.586,2.624,1.3.286.276.755.241.793-.226a16.316,16.316,0,0,1,.917-2.534.548.548,0,0,1,.673-.482,9.878,9.878,0,0,1,2.594.16c.547.036.825-.354.617-.685-.583-.927.229-1.9-.205-2.8-.075-.156.133-.237.241-.259.89-.179,1.6-.843,2.53-.919.543-.044.8-.549.43-.957-.624-.685-.622-1.637-1.133-2.357-.072-.1-.24-.321-.036-.418.876-.415,1.141-1.469,2.033-1.88C854.355,343.98,854.372,343.528,853.862,343.187ZM851.119,338c.711.213.816.517.523,1.208-.478,1.128-.42,1.153-.962,1.491a7.349,7.349,0,0,0,.38-.661c.635-1.412.522-1.623-.944-2.137-.259-.091-.61.014-.847-.389C850.01,337.368,850.528,337.821,851.119,338Zm-2.346-4.012c.406.319.321,2.058-.126,2.583.122-2.332.122-2.332-2.386-2.381A3.2,3.2,0,0,1,848.772,333.985Zm-9.645,16.439a6.472,6.472,0,0,1-6.49-6.52,6.625,6.625,0,0,1,6.619-6.578,6.549,6.549,0,1,1-.129,13.1Zm2.049.6c-.623,1.113-1.187,2.183-1.813,3.214-.314.517-.481,0-.594-.193-.581-.977-1.132-1.973-1.781-3.118A10.425,10.425,0,0,0,841.175,351.022ZM832,342.216a34.007,34.007,0,0,1-2.071-3.577h3.941A9.757,9.757,0,0,0,832,342.216Zm12.31-3.6h4.047l-1.925,3.381A8.856,8.856,0,0,0,844.314,338.613Zm-2.151-6.724c.62-.545,1.468-.59,2.163-.973.036-.02.174.049.186.1.215.841.968,1.521.7,2.512a7.231,7.231,0,0,0-.711-1.8c-.159-.305-.307-.44-.68-.268-.475.218-1.036.246-1.419.667-.091.1-.208.189-.324.029C842,332.043,842.089,331.956,842.164,331.89Zm-4.446-.7c.394-.387.808-.753,1.207-1.136.084-.081.182-.165.262-.072.559.656,1.569.925,1.733,2.1-.455-.488-.833-.87-1.183-1.276s-.625-.509-1.113-.093a3.387,3.387,0,0,0-1.146,1.467A.8.8,0,0,1,837.718,331.189Zm-4.434.816c.291-.767.67-1.275,1.608-.7.258.16.641.213.951.362.239.115.409.26.27.564a5.991,5.991,0,0,0-.8-.5c-1.318-.568-1.9-.2-2.035,1.271-.012.128-.038.255-.058.383C832.791,332.879,833.117,332.446,833.284,332.005Zm4.126.8a10.837,10.837,0,0,1,10.922,4.982c-1.579,0-3.079-.015-4.579.007-.7.01-1.147-.512-1.737-.737a7.349,7.349,0,0,0-6.651.523,1.254,1.254,0,0,1-.664.21c-1.553-.005-3.107,0-4.85,0A11.086,11.086,0,0,1,837.41,332.8Zm-7.559,1.118c.695.049,1.437-.465,2.283.368a4.445,4.445,0,0,0-2.01-.073c-.467.086-.568.241-.551.653.023.549.006,1.1.006,1.708a.694.694,0,0,1-.322-.707c0-.454.026-.91-.006-1.363S829.4,333.891,829.851,333.923Zm-3.471,4.557a.379.379,0,0,1,.015-.079,4.473,4.473,0,0,1,2.613-.712,6.01,6.01,0,0,0-1.857.653c-.41.173-.409.411-.292.744a4.989,4.989,0,0,0,.917,1.733A3.519,3.519,0,0,1,826.38,338.48Zm-1.017,5.287a.176.176,0,0,1-.05-.138,4.126,4.126,0,0,1,2.14-1.527,3.516,3.516,0,0,0-1.481,1.271c-.3.351-.2.531.073.776.43.383.772.856,1.223,1.238C826.268,345.269,826.021,344.285,825.363,343.767Zm3.458,6.036c-.069.318-.33.136-.518.059-.561-.23-1.123-.459-1.682-.7-.125-.053-.272-.169-.217-.3.337-.792.314-1.771,1.271-2.413-.15.478-.416.742-.527,1.088-.447,1.39-.264,1.712,1.226,1.979C828.569,349.56,828.886,349.5,828.821,349.8Zm2.477,3.741c-2.538-.079-1.962.523-2.038-2.087-.007-.235-.031-.49.32-.609,0,.579.028,1.14-.008,1.7-.033.507.116.731.661.689.566-.043,1.138-.009,1.72-.009C831.846,353.6,831.553,353.552,831.3,353.544Zm2.711,2.925c-.17.1-.229,0-.285-.135-.278-.658-.552-1.317-.841-1.97-.08-.18-.07-.335.113-.387.211-.061.233.136.281.287.694,2.219.473,2.1,2.713,1.007.066-.032.134-.059.357-.157C835.756,356.1,834.741,356.027,834.008,356.469Zm-4.133-6.764a10.941,10.941,0,0,1-.77-10.7c.91,1.561,1.714,2.965,2.546,4.354a4,4,0,0,1,.293,1.711,6.3,6.3,0,0,0,2.7,4.533,9.494,9.494,0,0,1,2.418,3.18,5.608,5.608,0,0,1,.966,1.916A10.821,10.821,0,0,1,829.876,349.7Zm10.878,6.242c-.455.486-.93.954-1.4,1.422-.065.064-.162.214-.257.1-.543-.66-1.551-.915-1.74-1.864.435.382.9.75,1.311,1.164.271.27.447.337.79.069a2.824,2.824,0,0,0,1.167-1.353C840.9,355.616,840.885,355.8,840.753,355.946Zm3.752.624c-.846-.485-1.9-.426-2.474-1.323a10.755,10.755,0,0,0,1.844.731c.292.082.425.14.564-.24.22-.605.6-1.148.79-1.783C845.469,354.969,844.513,355.6,844.506,356.57Zm4.473-4.23c-.149.393.138.891-.289,1.174a4.911,4.911,0,0,1-2.481-.289c.6,0,1.134-.014,1.671,0,.413.014.629-.029.735-.557a5.227,5.227,0,0,0-.027-1.858A1.269,1.269,0,0,1,848.979,352.34Zm-.229-3.279a11.014,11.014,0,0,1-8.691,5.664c.811-1.423,1.516-2.757,2.325-4.026.253-.4.786-.612,1.187-.915a6.6,6.6,0,0,0,2.893-5.4,2.993,2.993,0,0,1,.486-1.639c.739-1.186,1.411-2.415,2.157-3.708A10.5,10.5,0,0,1,848.75,349.061Zm3.11-.149a.191.191,0,0,1-.08.119,4.311,4.311,0,0,1-2.376.783c.542-.239,1.081-.486,1.626-.715.4-.166.486-.378.321-.811a5.268,5.268,0,0,0-.734-1.554A3.668,3.668,0,0,1,851.86,348.912Zm-.038-4.016c-.252.246-.427.713-1.083.51.8-.429,1.579-.967,1.608-1.69s-.849-1.16-1.6-1.661a1,1,0,0,1,1.04.319C853.118,343.617,853.125,343.627,851.822,344.9Z" transform="translate(-823.956 -328.561)" fill="#fafafa"/>
      <path id="Tracé_11" data-name="Tracé 11" d="M901.752,391.08c-.893.013-1.786,0-2.782,0,.725-.465.948-1.067.6-1.491a.75.75,0,0,0-1.168-.171c-.58.449-.628.976-.084,1.684a14.129,14.129,0,0,0-2.744.13c-.383.036-.724.058-.678.557.043.461.422.476.727.4a19.761,19.761,0,0,1,3.594-.148c.456-.023.944.024.941.591a.848.848,0,0,1-.9.839,10.142,10.142,0,0,1-2.155-.066,1.474,1.474,0,0,0-1.367.434c-.418.415-.086.8.015,1.184a3.4,3.4,0,0,0,.366.611.649.649,0,0,1,.048.716,2.863,2.863,0,0,0,1.04,3.758,2.5,2.5,0,0,0,1.355.614.6.6,0,0,0,.641-.494c.071-.347-.184-.455-.491-.471-.5-.026-.776-.441-1.15-.679a1.935,1.935,0,0,1-.694-1.989,1.831,1.831,0,0,1,1.6-1.139c.741.131,1.427.382,1.614,1.289.059.288.087.573.13.859a.411.411,0,0,0,.448.367c.308.012.354-.186.337-.42a3.824,3.824,0,0,0-.146-1.5c-.589-1.242-1.688-1.714-3.381-1.363-.276.057-.491.069-.612-.181-.069-.143-.3-.318-.1-.492a.632.632,0,0,1,.66-.171,4.7,4.7,0,0,0,1.986.09c1.339-.108,2.107-.847,1.875-1.857-.145-.634.163-.519.509-.537.326-.017.8.115.786-.413C902.562,391.181,902.172,391.073,901.752,391.08Z" transform="translate(-883.471 -379.445)" fill="#fafafa"/>
    </g>
    <g id="Groupe_3" data-name="Groupe 3" transform="translate(9.67 326.9)">
      <path id="Tracé_12" data-name="Tracé 12" d="M402.149,341.885a4.881,4.881,0,0,1-1.692-1.307,7.361,7.361,0,0,0-2.734-2.379c-.321-.13-.1-.3-.06-.437a6.352,6.352,0,0,0,.173-2.972,3.662,3.662,0,0,1,.215-2.427.8.8,0,0,0-.055-.947c-.263-.3-.614-.171-.955-.031a3.185,3.185,0,0,1-1.61.294,8.575,8.575,0,0,0-3.713.121c-.329.1-.424.087-.565-.262a5.411,5.411,0,0,0-1.718-2.06,4.445,4.445,0,0,1-1.817-2.124.647.647,0,0,0-.685-.453.661.661,0,0,0-.713.516,2.54,2.54,0,0,1-.744,1.107c-.8.885-1.966,1.429-2.477,2.566-.283.629-.5,1.109-1.256.519-.1-.081-.313-.022-.472-.041-1.614-.189-3.264.463-4.87-.291-.485-.228-.884.3-.686.859a4.136,4.136,0,0,1,.344,2.014,7.152,7.152,0,0,0,.192,3.763c.134.343-.2.324-.34.4a6.57,6.57,0,0,0-2.035,1.738,4.914,4.914,0,0,1-2.092,1.8.691.691,0,0,0-.544.619c-.023.385.226.576.542.7a5.452,5.452,0,0,1,2.11,1.8,4.789,4.789,0,0,0,2.126,1.717c.253.086.332.178.221.454a5.564,5.564,0,0,0-.216,3.119,3.7,3.7,0,0,1-.2,2.354c-.192.372-.278.7.039,1,.295.275.624.138.966.013a3.1,3.1,0,0,1,1.609-.3,8.345,8.345,0,0,0,3.639-.088c.328-.093.465-.172.636.247a5.2,5.2,0,0,0,1.609,1.929c.75.634,1.642,1.186,1.92,2.257a.755.755,0,0,0,1.379-.013,4.075,4.075,0,0,1,1.714-2.05,5.842,5.842,0,0,0,1.942-2.594,4.583,4.583,0,0,0,2.3.44c1.273.035,2.563-.4,3.827.273.508.269.959-.286.726-.873a3.959,3.959,0,0,1-.319-2.177,6.808,6.808,0,0,0-.2-3.523c-.12-.345.136-.365.286-.437a6.132,6.132,0,0,0,2.153-1.839,4.539,4.539,0,0,1,2.158-1.786C402.807,342.9,402.78,342.181,402.149,341.885Zm-4.962-9.59c-.7,1.769.551,3.636-.46,5.39a.663.663,0,0,1-.373-.767c.325-1.059-.185-2.1-.015-3.155.072-.449-.121-.589-.578-.6a12.328,12.328,0,0,0-3.4-.038c-.221.057-.508-.1-.664-.478C393.475,332.072,395.3,332.567,397.187,332.295Zm-13.416-.825a6.276,6.276,0,0,1,1.591-1.669,6.814,6.814,0,0,0,1.574-1.731c.877,1.715,2.912,2.343,3.612,4.178a.851.851,0,0,1-.887-.378c-.606-1.074-1.838-1.492-2.548-2.46-.158-.216-.4-.066-.545.11-.686.847-1.737,1.321-2.315,2.287-.129.216-.38.588-.694.327C383.27,331.891,383.647,331.678,383.771,331.47Zm2.451,1.087a9.567,9.567,0,0,1,8.763,4.294H378.771A9.86,9.86,0,0,1,386.222,332.556Zm8.983,5.158-8.281,14.334-8.282-14.334Zm-12.922-4.972a1.3,1.3,0,0,1-1.131.308,19.778,19.778,0,0,0-3.336.134c-.318,0-.33.24-.3.451.155,1.051-.345,2.094-.017,3.151a.944.944,0,0,1-.32.929c-1.081-1.754.159-3.636-.53-5.464C378.577,332.813,380.481,331.87,382.283,332.743Zm-9.826,9.79c1.681-.921,2.364-2.854,4.209-3.69,0,.437-.072.708-.29.837-1.078.638-1.565,1.848-2.544,2.576-.239.178-.185.362.015.523.871.7,1.364,1.786,2.364,2.346.36.2.371.514.518.963C374.772,345.381,374.172,343.367,372.457,342.533Zm6.464,10.057c-.737-.044-1.438.088-2.25.1.694-1.745-.582-3.627.475-5.382a.79.79,0,0,1,.354.824c-.319,1.06.18,2.107.014,3.16-.066.42.123.548.542.553a12.129,12.129,0,0,0,3.487.031c.149-.041.367.166.665.314C381.117,352.937,379.977,352.654,378.92,352.591Zm-.95-14.342,8.194,14.184A9.969,9.969,0,0,1,377.971,338.249Zm12.278,15.088a6.578,6.578,0,0,1-1.631,1.747,7.2,7.2,0,0,0-1.7,1.85c-.86-1.692-2.9-2.32-3.622-4.182a.994.994,0,0,1,1.043.618c.408.694,1.186,1.052,1.757,1.611.181.178.443.282.581.523s.3.234.485.03c.824-.885,1.987-1.43,2.573-2.553a.347.347,0,0,1,.54-.123C390.482,352.985,390.353,353.167,390.249,353.337Zm-2.45-.9c.157-.6,7.669-13.584,8.151-14.064A9.981,9.981,0,0,1,387.8,352.437Zm9.339.307c-1.849-.621-3.775.453-5.558-.483a1.32,1.32,0,0,1,1.23-.289,22.348,22.348,0,0,0,3.177-.145c.432.011.371-.318.348-.564a24.56,24.56,0,0,0,.013-2.988,1.115,1.115,0,0,1,.329-1,3.845,3.845,0,0,1,.4,2.73A7.34,7.34,0,0,0,397.138,352.744Zm.06-6.685a1.088,1.088,0,0,1,.623-1.017c.755-.462,1.108-1.366,1.771-1.909.809-.661.381-1.022-.14-1.46-.706-.593-1.065-1.538-1.987-1.923-.25-.1-.208-.441-.336-.786a4.264,4.264,0,0,1,2.224,1.675,6.7,6.7,0,0,0,2.093,1.844C399.668,343.333,399.088,345.392,397.2,346.059Z" transform="translate(-371.239 -326.9)" fill="#fafafa"/>
      <path id="Tracé_13" data-name="Tracé 13" d="M445.572,410.909a4.806,4.806,0,0,0,1.739.144c2.127.01,2.12.006,2.758,2.066a2.059,2.059,0,0,1,.082.706.858.858,0,0,1-1.2.8,2.431,2.431,0,0,1-.726-.3c-.291-.216-.579-.355-.847-.064s-.073.566.128.848a6.112,6.112,0,0,1,1.207,3.7c0,.227-.148.578.3.6.34.014.431-.193.516-.485.323-1.116-.172-2.112-.4-3.148,1.79-.262,2.247-.993,1.867-2.777-.15-.7-.553-1.309-.65-2.057.177-.018.331-.034.485-.048.606-.056,1.214-.1,1.818-.172.335-.041.657-.215.642-.579s-.347-.4-.662-.378c-.293.02-.594-.021-.882.027a22.046,22.046,0,0,1-5.951.2c-.3-.031-.539.024-.613.324S445.258,410.791,445.572,410.909Z" transform="translate(-433.262 -396.418)" fill="#fafafa"/>
      <path id="Tracé_14" data-name="Tracé 14" d="M465.312,400.54a.838.838,0,0,0,.891-.931.8.8,0,0,0-.928-.848.849.849,0,0,0-.869.931A.825.825,0,0,0,465.312,400.54Z" transform="translate(-449.4 -387.186)" fill="#fafafa"/>
    </g>
    <g id="Groupe_4" data-name="Groupe 4" transform="translate(158.384 327.064)">
      <path id="Tracé_15" data-name="Tracé 15" d="M1324.619,343.234c.263-.131.6-.155.6-.611,0-.477-.346-.544-.633-.707-.137-.078-.33-.1-.421-.208-.366-.442-1.142-.657-1.049-1.34a6.941,6.941,0,0,1,.779-2.457c.219-.394.868-.6.636-1.194-.252-.645-.87-.258-1.3-.355-.766-.172-1.37-.7-2.107-.867a1.052,1.052,0,0,1-.881-1.054,2.823,2.823,0,0,1,.182-1.8.464.464,0,0,0-.054-.643.614.614,0,0,0-.722-.182,5.334,5.334,0,0,1-.945.38c-.483.076-1.179.31-1.423-.134-.5-.9-1.271-1.713-1.246-2.849.009-.392-.072-.808-.45-.936-.332-.113-.6.16-.852.435a6.139,6.139,0,0,1-3.035,1.367c-.488.146-1-.67-1.453-1.115a1.286,1.286,0,0,1-.359-.6.606.606,0,0,0-.673-.451c-.3.029-.377.21-.439.475a1.477,1.477,0,0,1-.337.7c-.419.408-.7,1.222-1.389,1.028a5.492,5.492,0,0,1-2.858-1.229c-.392-.419-1.079-.223-1.055.258a5.431,5.431,0,0,1-.91,2.844c-.186.349-.083.979-.783.907-.475-.049-.917.3-1.41.126-.436-.151-.92-.529-1.335-.176-.518.441.116.912.142,1.383.005.1.125.192.122.285-.019.468.247,1.16-.113,1.363a7.02,7.02,0,0,1-2.9,1.352c-.354.023-.747-.027-.9.353s.147.631.4.858c.873.793.886,2,1.426,2.952a.325.325,0,0,1-.04.3c-.492.508-.778,1.213-1.48,1.523-.321.142-.747.235-.7.713.043.413.435.448.736.612.66.361,1.541.807,1.44,1.59a4.343,4.343,0,0,1-1.113,2.8.81.81,0,0,0-.249.867c.1.383.456.315.739.3,1.242-.073,2.151.795,3.245,1.136.063.02.158.1.154.149-.053.657.361,1.279.1,1.961-.13.345-.47.754-.12,1.106.368.37.77.044,1.173-.074.612-.18,1.51-.357,1.826.035a5.757,5.757,0,0,1,1.384,2.793c.043.323-.156.752.289.912a.923.923,0,0,0,1.039-.409c.755-.869,1.958-.841,2.868-1.4a.225.225,0,0,1,.2.049c.425.378.972.583,1.309,1.1.932,1.432,1.047,1.416,1.846-.031.05-.091.071-.214.145-.275.36-.3.637-.994,1.062-.863,1.058.329,2.246.4,3.1,1.245.191.188.353.38.685.232a.531.531,0,0,0,.335-.629c-.124-1.277.8-2.2,1.127-3.325a.415.415,0,0,1,.365-.263,4.639,4.639,0,0,1,2.055.044c.309.1.616.3.857.01a.823.823,0,0,0,.018-.907,2.025,2.025,0,0,1-.208-1.327c.035-.151-.215-.6.115-.806a6.458,6.458,0,0,1,2.966-1.349c.341-.019.551-.055.691-.293a.527.527,0,0,0-.156-.716c-1-.778-.985-2.064-1.533-3.068a.52.52,0,0,1,.087-.527A3.937,3.937,0,0,1,1324.619,343.234ZM1320.4,336.1c.017-.057.1-.092.145-.125.363.17.708.307,1.028.489.6.341,1.509.246,1.841.715.2.276-.546,1.065-.628,1.722a2.117,2.117,0,0,1-.17.6c-.065.143-.075.43-.283.372-.244-.068-.333-.28-.2-.568a3.451,3.451,0,0,0,.182-.759c.08-.383.528-.823.285-1.087a3.44,3.44,0,0,0-1.039-.515c-.336-.147-.684-.268-1.014-.427A.332.332,0,0,1,1320.4,336.1Zm.795,2.167c-1.078,1.431-.767,3.6-2.648,4.559-.1-.6-.079-.571.31-.962a4.27,4.27,0,0,0,.859-1.826c.424-1.315.423-1.316-.859-1.951a3.45,3.45,0,0,0-1.957-.518c-.436.052-.562-.32-.851-.548C1318.067,336.3,1319.392,338.063,1321.193,338.263Zm-5.805,11.607c-.074-.445.361-.449.558-.667.559.952.071,1.792-.294,2.609a10.145,10.145,0,0,0-.95,2.461c-1.341-1.149-3.52-.744-4.486-2.617a.583.583,0,0,1,.779.1c.8.87,1.977.911,2.972,1.351.282.125.369-.084.46-.284C1314.858,351.871,1315.581,351.02,1315.388,349.87Zm-5.4,1.014a7.859,7.859,0,1,1,7.816-7.842A7.788,7.788,0,0,1,1309.985,350.884ZM1305.666,353c.06.187.295.213.488.123.959-.448,2.136-.441,2.861-1.381.219-.284.529-.176.831-.151-.864,2.02-3.228,1.543-4.581,2.866a4.124,4.124,0,0,0-.735-2.287,3.151,3.151,0,0,1-.489-2.947.915.915,0,0,1,.567.951C1304.479,351.286,1305.359,352.035,1305.666,353Zm-1.221-16.779c.026.317-.144.495-.425.656a2.652,2.652,0,0,1,.153-2.475,6.182,6.182,0,0,0,.949-2.708c1.427,1.2,3.658.817,4.6,2.762a.793.793,0,0,1-.9-.262c-.806-.816-1.989-.878-3.007-1.275-.14-.055-.215.083-.275.219C1305.1,334.135,1304.345,335.026,1304.445,336.217Zm9.824-3.129c-.1-.232-.191-.343-.461-.2-.99.525-2.3.434-3,1.549-.07.112-.4.063-.722.1a3.313,3.313,0,0,1,2.142-1.792,6.2,6.2,0,0,0,1.879-.772c.416-.341.54-.065.586.205a8.9,8.9,0,0,0,.978,2.228,3.451,3.451,0,0,1,.362,1.758c-.017.211.013.509-.236.506a.466.466,0,0,1-.406-.515C1315.459,334.973,1314.7,334.092,1314.269,333.088Zm3.278-.213a2.094,2.094,0,0,0,1.034.009c.992-.157,1.009-.171.985.786-.024.932.278,1.842.163,2.777-.02.161.1.449-.181.431-.2-.013-.5-.1-.457-.435.074-.643-.171-1.266-.147-1.893.032-.812-.282-1.1-1.073-1.014-.449.051-.91-.013-1.364.015-.412.025-.629-.176-.84-.563A2.922,2.922,0,0,1,1317.547,332.875Zm-4.71-2.472c.424-.2.879-.326,1.308-.514.4-.177.792-.394,1.21-.606a4.364,4.364,0,0,0,.916,2.368c.086.141.443.376.1.578-.207.12-.385-.062-.5-.274-.311-.594-.513-1.505-.986-1.68s-1.245.343-1.868.6c-.26.108-.513.16-.6-.109S1312.675,330.479,1312.837,330.4Zm-5.811,1.129c.223-.23.452-.453.677-.681a6,6,0,0,0,1.6-2.007,8.49,8.49,0,0,0,2.295,2.223,4.967,4.967,0,0,1,.563.623c.1.117.272.289.05.366-.134.046-.35.277-.53.01-.5-.743-1.368-1.063-1.968-1.694-.237-.249-.392-.285-.677.057-.45.541-1.121.879-1.531,1.478-.181.264-.4.035-.53-.012C1306.753,331.818,1306.919,331.643,1307.027,331.532Zm-4.109.577a9.285,9.285,0,0,0,.955-2.483,5.911,5.911,0,0,0,2.205.908c.158.041.659-.053.554.357-.083.323-.38.238-.665.129-.438-.168-.935-.2-1.354-.4-.4-.19-.546-.009-.62.285a9.12,9.12,0,0,1-.649,1.436c-.107.245-.263.5-.507.357C1302.641,332.589,1302.827,332.287,1302.918,332.109Zm-.7,1.333a1.764,1.764,0,0,1,1.087.04c.118.063.478-.1.374.3-.066.255-.11.439-.443.414a15.439,15.439,0,0,0-2.463.137c-.438.037-.542.176-.523.573.027.561-.009,1.125.012,1.687a.744.744,0,0,1-.562.818c-.34-1.259.228-2.585-.429-3.942A5.035,5.035,0,0,0,1302.219,333.442Zm1.593,3.665a1.046,1.046,0,0,1-.947.495c-1.115,0-1.992.742-2.952,1.213-.235.115-.067.311,0,.481.421,1.013.391,2.253,1.51,2.911.245.144.035.329-.042.478-.15.293-.349.021-.422-.033a3.22,3.22,0,0,1-1.178-1.558,8.153,8.153,0,0,0-1.149-2.675C1300.46,338.276,1301.734,336.394,1303.812,337.107Zm-7.86.836a8.613,8.613,0,0,0,2.957-1.313c.09.3.134.535-.215.675a6.836,6.836,0,0,0-.743.432c-1.095.61-1.08.6-.589,1.8.167.407.64,1.03.14,1.238-.426.178-.387-.616-.532-.973A6.256,6.256,0,0,0,1295.952,337.943Zm.269,6.259a2.957,2.957,0,0,0-.674-.284,6.664,6.664,0,0,0,1.992-2.044,2.872,2.872,0,0,1,1.032-.968c.2-.1.346-.155.473.042s.127.333-.122.509a8.711,8.711,0,0,0-1.716,1.857c-.3.383-.361.677.081,1.032a18.332,18.332,0,0,1,1.313,1.288c.187.184.323.384.11.618-.255.281-.351-.091-.5-.166C1297.364,345.663,1297.062,344.657,1296.221,344.2Zm3.186,6.085c-.15.293-.518-.012-.746-.106a4.392,4.392,0,0,0-2.446-.69,5.574,5.574,0,0,0,1.042-2.337c.033-.16-.02-.61.308-.536.376.086.24.4.164.712a5.333,5.333,0,0,1-.382,1.193c-.184.358-.124.5.258.633a9.461,9.461,0,0,1,1.283.606C1299.117,349.884,1299.6,349.911,1299.407,350.287Zm-.747-2.445a7.425,7.425,0,0,0,1.1-2.511,2.852,2.852,0,0,1,1.562-2.069c.195.317.373.559-.12.879a2.758,2.758,0,0,0-.952,1.849c-.106.446-.52,1.051-.36,1.278.268.38.888.509,1.353.757a3.114,3.114,0,0,0,1.809.475c.344-.036.66.132.66.427,0,.266-.373.192-.606.221a4.212,4.212,0,0,1-2.476-.7A3.935,3.935,0,0,0,1298.659,347.843Zm1.64,5.8a5.112,5.112,0,0,0-.153-2.744,5.091,5.091,0,0,1,.14-1.471.216.216,0,0,1,.27-.207.438.438,0,0,1,.352.523,16.1,16.1,0,0,0,.145,2.772c.039.352.021.431.479.373.813-.1,1.647.278,2.493,0,.163-.053.262.234.307.413.073.293-.2.128-.3.208-.252.213-.56.124-.845.127C1302.243,353.653,1301.3,353.647,1300.3,353.647Zm7.207,2.246a9.64,9.64,0,0,0-2.571,1.111c-.3.146-.312.049-.328-.065a6.052,6.052,0,0,0-.972-2.21c-.069-.116-.266-.266-.053-.4a.338.338,0,0,1,.477.156,3.192,3.192,0,0,1,.429.746c.3,1.027.876,1.11,1.718.6a5.764,5.764,0,0,1,1.026-.379c.2-.072.3.054.383.192C1307.681,355.761,1307.622,355.844,1307.507,355.893Zm4.325.1a6.467,6.467,0,0,0-1.223,1.536c-.654-1.172-1.94-1.633-2.744-2.62-.184-.226-.435-.4-.355-.748.041-.18.167-.172.3-.186.377-.041.363.3.5.5.547.769,1.49,1.087,2.08,1.81.093.114.222.124.318-.036.467-.781,1.455-1.061,1.849-1.922a.35.35,0,0,1,.549-.125c.269.182.06.411-.045.53C1312.677,355.171,1312.257,355.584,1311.832,355.989Zm4.327.842a7.4,7.4,0,0,0-2.583-.969c-.1-.013-.424-.031-.318-.3a.321.321,0,0,1,.439-.194,7.776,7.776,0,0,1,1.437.394c.406.2.653.238.806-.3a12.625,12.625,0,0,1,.62-1.446c.134-.313.327-.472.7-.31A8.929,8.929,0,0,0,1316.159,356.831Zm4.2-4.046c-.264.174-.725.064-1.1.055a20.849,20.849,0,0,1-2.54.16c-.3-.044-.752.036-.576-.529.045-.145.1-.3.33-.225a6.564,6.564,0,0,0,2.876-.2c.33-.043.278-.118.282-.425a7.722,7.722,0,0,0-.031-2.5c-.053-.17.2-.275.385-.34.384-.136.2.209.255.318.277.552.053,1.153.13,1.633a6.507,6.507,0,0,1-.012,1.056C1320.3,352.146,1320.643,352.6,1320.363,352.785Zm-1.356-4.3c-.852.45-1.714.987-2.728.425.151-.337.29-.506.819-.464a3.81,3.81,0,0,0,2.092-.781c.959-.561.959-.532.609-1.61a4,4,0,0,0-1.158-2.1c-.281-.222-.2-.523-.17-.853,1.99.889,1.682,3.151,2.859,4.56A5.287,5.287,0,0,0,1319.007,348.488Zm4.992.119a4.828,4.828,0,0,0-2.466.912c-.145.091-.342.323-.489.072-.1-.171-.033-.379.23-.5.5-.221.957-.537,1.461-.743.3-.122.344-.223.218-.5-.234-.521-.4-1.077-.657-1.583-.2-.386-.091-.583.247-.749A14.069,14.069,0,0,0,1324,348.607Zm-2.914-2.9a.661.661,0,0,1,.182-.928,6.147,6.147,0,0,0,1-1.117c.785-1.076.812-1.057-.112-1.979a6.9,6.9,0,0,0-1.039-.992c-.343-.22-.112-.446-.062-.58.113-.3.345-.029.441.046.355.275.674.6,1,.905a10.183,10.183,0,0,0,1.728,1.548C1322.895,343.39,1322.489,345.049,1321.086,345.7Z" transform="translate(-1294.638 -327.914)" fill="#fafafa"/>
      <path id="Tracé_16" data-name="Tracé 16" d="M1370.452,408.373a2.11,2.11,0,0,1-.5-.245,2.3,2.3,0,0,0,.86-1.141,1.9,1.9,0,0,0-.244-1.939c-.493-.575-1.078-.377-1.678-.223a5.8,5.8,0,0,0-1.815,1.078c-.352.244-.5.665-.22.954.236.241.651.125.9-.2a2.781,2.781,0,0,1,1.239-.829c.316-.126.721-.177.919.108.175.251.007.566-.175.869a5.075,5.075,0,0,1-2.023,1.729.6.6,0,0,0-.286.809c.119.321.453.169.7.121a10.91,10.91,0,0,1,1.068-.254,2.007,2.007,0,0,1,1.9.543,1.469,1.469,0,0,1,.256,1.5,2.184,2.184,0,0,1-3.134,1.088,5.159,5.159,0,0,1-1.951-2.333c-.135-.3-.344-.615-.722-.444s-.314.569-.185.85c.807,1.758,2.012,3.35,4.437,3.132a2.963,2.963,0,0,0,2.58-2.4C1372.5,409.873,1372.089,408.6,1370.452,408.373Z" transform="translate(-1353.884 -392.302)" fill="#fafafa"/>
      <path id="Tracé_17" data-name="Tracé 17" d="M1377.113,390.345c1.148.128,1.755-.761,2.434-1.483a.6.6,0,0,0-.057-.806c-.275-.27-.483.047-.681.158a2.736,2.736,0,0,0-.52.5c-1.045,1.041-2.076.914-2.8-.377-.191-.339-.343-.491-.738-.293s-.287.431-.174.719A2.568,2.568,0,0,0,1377.113,390.345Z" transform="translate(-1361.615 -378.281)" fill="#fafafa"/>
      <path id="Tracé_18" data-name="Tracé 18" d="M1386.923,385.325c.69-.02,1-.226.985-.771a.636.636,0,0,0-.693-.693c-.542-.014-.747.276-.76.8C1386.442,385.135,1386.62,385.364,1386.923,385.325Z" transform="translate(-1371.667 -374.85)" fill="#fafafa"/>
      <path id="Tracé_19" data-name="Tracé 19" d="M1399.846,415.944c-.2.463.042.486.359.555.532.115.695-.431,1.235-.653a1.225,1.225,0,0,0,.185,1.645c.586.527,1.112.282,1.592-.215a1.65,1.65,0,0,0,.165-1.883C1402.387,414.071,1400.29,414.907,1399.846,415.944Zm2.585.7c-.4.042-.144-.227-.125-.337.041-.244-.219-.362-.293-.62.371.085.551.261.6.528C1402.636,416.37,1402.717,416.616,1402.431,416.646Z" transform="translate(-1382.842 -400.734)" fill="#fafafa"/>
    </g>
    <g id="Groupe_5" data-name="Groupe 5" transform="translate(-23.899 327.385)">
      <path id="Tracé_20" data-name="Tracé 20" d="M188.807,350.372c-.324-1.994-.584-4.015-2.829-5.061a4.751,4.751,0,0,0,2.619-3.767,6.057,6.057,0,0,1,1.174-3.13c.23-.259.138-.525,0-.808a.584.584,0,0,0-.756-.283,3.63,3.63,0,0,1-2.427-.389c-1.619-.644-3.25-1.18-4.95-.236-.5.278-.547-.082-.552-.434a4.4,4.4,0,0,0-2.008-3.5,4.891,4.891,0,0,1-2.157-2.462c-.1-.371-.377-.392-.69-.391s-.54.064-.637.444a2.788,2.788,0,0,1-.908,1.375,22.78,22.78,0,0,0-1.919,1.8,4.241,4.241,0,0,0-1.157,3.511c-1.888-1.223-3.631-.9-5.414-.111a3.137,3.137,0,0,1-2.582.4.567.567,0,0,0-.681.287.824.824,0,0,0,.105,1.018,3.67,3.67,0,0,1,.977,2.441c.306,1.719.826,3.29,2.558,4.187a1.391,1.391,0,0,1-.2.234,4.791,4.791,0,0,0-2.221,3.655,5.348,5.348,0,0,1-1.161,3.3.6.6,0,0,0,0,.752.747.747,0,0,0,.842.3,2.831,2.831,0,0,1,1.94.116,8.775,8.775,0,0,0,3.7.761,21.937,21.937,0,0,0,2.121-.563,4.472,4.472,0,0,0,1.6,3.692c.935.868,2.115,1.543,2.5,2.91.08.285.391.388.728.382.394-.006.527-.287.591-.551a3.525,3.525,0,0,1,1.526-1.871,6.03,6.03,0,0,0,2.468-3.007c.125-.439-.014-.892.214-1.323.115-.219.152-.28.36-.17a5.524,5.524,0,0,0,4.827-.085,4.054,4.054,0,0,1,2.4-.362c.407.1.734.045.894-.245a.817.817,0,0,0-.12-1.035A2.8,2.8,0,0,1,188.807,350.372Zm-7.269-12.609a3.6,3.6,0,0,1,3.818-.4,14.969,14.969,0,0,0,3.349.988,9.849,9.849,0,0,0-1.019,3.487A4.336,4.336,0,0,1,185.4,344.7c-.114.065-.27.268-.406.067s-.031-.328.188-.422c1.666-.712,2.063-2.209,2.33-3.785a3.473,3.473,0,0,1,.221-1.078c.384-.7.106-.913-.556-1.054a9.1,9.1,0,0,1-1.724-.555,3.518,3.518,0,0,0-3.681.207c-.132.092-.378.347-.55.063S181.422,337.846,181.538,337.763Zm-8.107-3.684c.8-.883,1.907-1.455,2.543-2.509.091-.15.082-.388.38-.444a5.837,5.837,0,0,0,1.794,1.98,4.968,4.968,0,0,1,2.273,3.532.908.908,0,0,1-.346.855,2.987,2.987,0,0,1-.168-1.286c-.173-1.494-1.311-2.22-2.315-3.062-.1-.083-.23-.13-.328-.214-1.088-.933-1.08-.927-2.124.095-.4.388-.839.73-1.253,1.1a4.248,4.248,0,0,0-1.168,2.845c-.015.112.227.313-.1.322-.237.007-.214-.176-.231-.334A3.555,3.555,0,0,1,173.431,334.078Zm2.8,3.272a6.306,6.306,0,0,1,6.4,6.359,6.416,6.416,0,1,1-12.831-.076A6.334,6.334,0,0,1,176.233,337.35Zm-11.382,3.822a8.448,8.448,0,0,0-.874-2.833,13.137,13.137,0,0,0,3.742-1.108,3.732,3.732,0,0,1,3.646.657c-.162.219-.279.24-.454.128-1.424-.911-2.827-.535-4.237.062a5.2,5.2,0,0,1-2.036.55,16.688,16.688,0,0,1,.877,3.482c.231,1.243,1.354,1.754,2.064,2.6A4.128,4.128,0,0,1,164.851,341.172Zm2.421,12.094a6.7,6.7,0,0,0-3.268-.651,11.122,11.122,0,0,0,1-3.8,3.843,3.843,0,0,1,2.493-2.925c.14.3,0,.47-.248.579-1.373.6-1.715,1.832-1.937,3.136a8.1,8.1,0,0,1-.409,2c-.165.368.031.562.286.582a29.388,29.388,0,0,1,3.094.919,3.51,3.51,0,0,0,2.277-.336c.276-.13.561-.465.956-.1A4.181,4.181,0,0,1,167.273,353.266Zm12.279,3a15.989,15.989,0,0,1-2.069,1.865,4.233,4.233,0,0,0-.947,1.132c-.178.252-.309.31-.5-.03a7.217,7.217,0,0,0-1.805-1.877,4.184,4.184,0,0,1-1.837-3.6c.014-.188-.109-.482.219-.506.352-.026.277.287.252.464-.267,1.844,1.072,2.774,2.194,3.8a4.467,4.467,0,0,1,.76.684c.343.513.589.508.978.044a10.264,10.264,0,0,1,1.81-1.537,3.448,3.448,0,0,0,1.35-2.741,1.707,1.707,0,0,1,.129-.939A2.964,2.964,0,0,1,179.552,356.268Zm-8.722-5.2a7.709,7.709,0,0,1-1.613-9.354,7.578,7.578,0,0,0,1.159,6.356,7.3,7.3,0,0,0,11.381.346,7.407,7.407,0,0,0,1.595-6.16,7.425,7.425,0,0,1-2.107,9.071A7.652,7.652,0,0,1,170.83,351.071Zm14.312,2.294a4.078,4.078,0,0,1-3.7-.516,2.239,2.239,0,0,1-.325-.355c.6-.255.918.266,1.32.443a3.68,3.68,0,0,0,2.468.059c.891-.218,1.759-.533,2.625-.84.109-.039.487.107.34-.322a17.935,17.935,0,0,1-.588-2.932,3.435,3.435,0,0,0-2-2.562c-.167-.086-.411-.075-.319-.331.142-.392.376-.044.5.012a3.953,3.953,0,0,1,2.361,3.481,7.788,7.788,0,0,0,.9,3.11A8.049,8.049,0,0,0,185.142,353.365Z" transform="translate(-162.803 -329.909)" fill="#fafafa"/>
      <path id="Tracé_21" data-name="Tracé 21" d="M242.274,396.909c.463-.018.707-.159.644-.688.126-.717-.448-.568-.866-.641-.539-.095-.548.381-.535.625A.669.669,0,0,0,242.274,396.909Z" transform="translate(-228.837 -384.993)" fill="#fafafa"/>
      <path id="Tracé_22" data-name="Tracé 22" d="M226.584,411.857a9.648,9.648,0,0,0,2.067-.759c.16.306.052.613.2.888s-.006.791.539.693c.439-.079.314-.5.316-.8.008-1.417-.013-2.835.016-4.252.007-.339-.168-.928.6-.746a.437.437,0,0,0,.5-.3.487.487,0,0,0-.254-.609,1.7,1.7,0,0,0-.842-.181,43.077,43.077,0,0,0-4.709.155c-.394.047-.731.161-.743.556-.016.532.462.457.774.407a20.5,20.5,0,0,1,3.345-.144c.168,0,.393-.092.489.146a.742.742,0,0,1-.148.675c-.157.264-.33.026-.478-.02a4.345,4.345,0,0,0-3.576.5,2.124,2.124,0,0,0-.925,2.459A2.609,2.609,0,0,0,226.584,411.857Zm-1.669-2.641a3.187,3.187,0,0,1,2.2-.848,1.547,1.547,0,0,1,.936.206c.758.389.817.608.336,1.327a3.174,3.174,0,0,1-3.215.778A.857.857,0,0,1,224.915,409.216Z" transform="translate(-213.844 -393.569)" fill="#fafafa"/>
    </g>
    <g id="Groupe_6" data-name="Groupe 6" transform="translate(46.947 327.38)">
      <path id="Tracé_23" data-name="Tracé 23" d="M633.292,344.767c-.063-.254-.347-.2-.523-.293-.831-.463-1.184-1.484-1.992-1.9-.945-.482-.722-.944-.4-1.687.407-.946.3-2.065.994-2.951.258-.328-.268-.934-.674-.774a1.179,1.179,0,0,1-.9-.027,8.82,8.82,0,0,0-1.886-.53c-.836-.083-1.272-.355-1.273-1.272,0-1-.895-1.817-.589-2.934.125-.455-.474-.72-.976-.45a5.57,5.57,0,0,1-1.526.583,4.481,4.481,0,0,0-2.131.722c-.082.068-.239.226-.314-.084-.188-.779-.864-1.2-1.407-1.688-.376-.336-.842-.593-.971-1.1-.09-.351-.22-.495-.578-.509a.632.632,0,0,0-.695.43,1.991,1.991,0,0,1-.989,1.2,5.1,5.1,0,0,0-1.537,1.857,5.156,5.156,0,0,0-1.871-.772,3.414,3.414,0,0,1-1.967-.7c-.367-.359-.907-.028-.911.511a3.72,3.72,0,0,1-.239,1.634,3.662,3.662,0,0,0-.406,1.908c.036.435-.137.562-.549.534a4.084,4.084,0,0,0-1.68.366c-.536.2-1.069.563-1.66.4a.628.628,0,0,0-.795.223c-.251.317-.051.561.108.777a3.157,3.157,0,0,1,.561,1.529,3.654,3.654,0,0,0,.411,1.5c.337.518.419.731-.219,1.056-1.114.567-1.568,1.91-2.761,2.452a.449.449,0,0,0,.1.829c.895.275,1.25,1.109,1.9,1.622.826.653,1.644,1.23.728,2.387-.053.067.013.217-.019.315a6.378,6.378,0,0,1-.8,2.266.492.492,0,0,0,.442.81c.975-.1,1.793.43,2.7.52,1.055.1,1.887.31,1.569,1.665-.014.057.083.133.1.207a6.639,6.639,0,0,1,.525,2.455.482.482,0,0,0,.786.469,5.839,5.839,0,0,1,2.282-.762,3.025,3.025,0,0,0,1.689-.818,3.889,3.889,0,0,0,1.5,1.972,2.724,2.724,0,0,1,1,1.18.758.758,0,0,0,.63.524c.345.035.5-.231.627-.511a4.113,4.113,0,0,1,1.315-1.482,3.43,3.43,0,0,0,1.165-1.667,2.242,2.242,0,0,0,1.363.756,6.511,6.511,0,0,1,2.531.777c.486.324,1.1-.076.94-.547a2.175,2.175,0,0,1,.178-1.369c.219-.872.732-1.692.467-2.669a6.137,6.137,0,0,0,1.978-.236,4.048,4.048,0,0,1,2.148-.434c.25.027.524,0,.59-.284a.691.691,0,0,0-.128-.749c-.346-.3-.366-.732-.5-1.126-.2-.572-.052-1.232-.432-1.741-.435-.585-.425-.975.294-1.356,1-.532,1.407-1.781,2.535-2.221C633.463,345.438,633.361,345.047,633.292,344.767Zm-6.144-7.45a3.856,3.856,0,0,1,1.67.362.922.922,0,0,1,.283.135c.327.246.979-.085,1.059.415a3.529,3.529,0,0,1-.252,1.21c-.177.721-.17,1.544-.867,2.046-.119.086-.177.4-.425.155-.2-.2-.046-.333.1-.45.854-.664.562-1.729.9-2.574.043-.109-.069-.175-.18-.217a9.36,9.36,0,0,0-1.976-.635,1.73,1.73,0,0,1-.357,0c-.255-.1-.666.4-.736-.039C626.3,337.3,626.889,337.358,627.148,337.318Zm-17.71,12.8c.7-1.205,1.352-2.328,2-3.456.822-1.435,1.634-2.875,2.459-4.308a1.1,1.1,0,0,1,.283-.244,37.553,37.553,0,0,1,2.227-4.059c.509-.972,1.1-1.9,1.687-2.9,2.876,4.991,5.707,9.9,8.534,14.816.022.039,0,.1,0,.15Zm10.975.855-2.278,4c-.927-1.25-1.541-2.622-2.415-4Zm-9.743-7.1a1.889,1.889,0,0,1-.046,2.526c-.645.915-1.142,1.935-1.732,2.958a9.788,9.788,0,0,1-.028-8.577A33.45,33.45,0,0,0,610.669,343.874Zm-1.243-3.813h4.837l-2.41,4.192Zm12.479-.027h4.806c-.764,1.439-1.524,2.812-2.422,4.192Zm3.139,5.45a.651.651,0,0,1-.064-.714l2.351-4a9.673,9.673,0,0,1,.305,7.886c-.079.207-.015.576-.3.6-.328.033-.316-.362-.439-.569C626.271,347.627,625.667,346.55,625.044,345.484Zm-1.094-12.22c.077-.015.179.027.238-.008.978-.583,1.033.127,1.184.8.113.506.336.987.49,1.486a.956.956,0,0,1,.051.544c-.1.285-.1.834-.374.79-.455-.073-.126-.49-.1-.78a6.05,6.05,0,0,0-.629-2.338.229.229,0,0,0-.315-.157c-.866.3-1.919.1-2.581.948-.055.07-.085.111-.171.065s-.186-.1-.27-.14A3.3,3.3,0,0,1,623.95,333.265Zm2.512,5.948c-1.644,0-3.09-.006-4.535,0a.7.7,0,0,1-.7-.289c-.757-1.311-1.5-2.628-2.331-4.083A10.612,10.612,0,0,1,626.463,339.213Zm-10.674-5.464c.174-.888,1.007-1.259,1.5-1.9.676-.869,1.131-.5,1.7.148.425.484,1.081.761,1.314,1.433.051.146.119.286.155.372-.005.227.017.4-.223.412s-.235-.138-.261-.307c-.164-1.082-1.2-1.4-1.842-2.054-.083-.084-.2-.012-.277.072-.569.641-1.472.985-1.712,1.915-.054.21-.064.476-.369.358S615.76,333.9,615.789,333.749ZM611,332.9c1.221.609,2.774.248,3.708,1.507-.2.149-.368.188-.448.092-.649-.788-1.656-.573-2.47-.894-.265-.1-.407,0-.537.355a5.669,5.669,0,0,0-.455,2.544.317.317,0,0,1-.23.375C609.775,335.481,611.006,334.3,611,332.9Zm-1,5.908a10.569,10.569,0,0,1,6.772-3.937,2.673,2.673,0,0,1,.492.025c-.825,1.391-1.625,2.71-2.389,4.05a.475.475,0,0,1-.5.263c-1.364,0-2.728,0-4.092,0-.144,0-.345.076-.4-.132C609.859,339.006,609.945,338.89,610.005,338.812Zm-3.873-.684a3.069,3.069,0,0,1,1.319-.451c.642-.153,1.241-.649,1.961-.27.152.08.409.094.333.327-.069.212-.246.134-.453.083-.968-.239-1.775.328-2.642.6-.24.075-.052.207-.038.3a4.1,4.1,0,0,0,.9,2.62c.072.07.046.24.073.413a2.566,2.566,0,0,1-1.288-2.1.968.968,0,0,1,0-.24C606.356,338.959,605.717,338.5,606.133,338.128Zm-.876,8.22a8.111,8.111,0,0,0-1.386-1.214c1.359-.68,1.677-2.448,3.378-2.252a5,5,0,0,0-2.488,2.232c.7.689,1.1,1.787,2.311,1.985.181.03.206.156.176.292-.056.261-.2.13-.352.081A3.027,3.027,0,0,1,605.256,346.348Zm4.232,6.39a1.934,1.934,0,0,1-1.606-.035,4.564,4.564,0,0,0-2.053-.452c.683-1.316.222-2.979,1.676-3.8-.013.122.357.19.012.44-.921.67-.635,1.821-.978,2.728-.064.169.127.241.288.293a4.928,4.928,0,0,0,2.606.448c.2-.045.323-.027.364.14C609.862,352.767,609.607,352.673,609.488,352.738Zm5.084,3.208a2.739,2.739,0,0,1-1.942.928,7.577,7.577,0,0,0-1.667.467,4.668,4.668,0,0,0-.5-2.119,2.218,2.218,0,0,1,.016-1.687.239.239,0,0,1,.316-.155c.245.068.034.2.016.292a5.289,5.289,0,0,0,.467,2.646c.126.422.443.286.639.243.832-.18,1.748-.181,2.352-.942.079-.1.2-.227.328-.107A.309.309,0,0,1,614.572,355.946Zm-4.788-4.994c1.657,0,3.148,0,4.639,0a.421.421,0,0,1,.442.234c.764,1.344,1.555,2.673,2.382,4.083A10.465,10.465,0,0,1,609.785,350.953Zm8.3,8.165c-.672-.953-1.976-1.342-2.337-2.626-.064-.229-.222-.561-.02-.615.267-.072.331.244.417.522.285.918,1.153,1.334,1.831,1.908a.373.373,0,0,0,.364-.03c.524-.716,1.63-.976,1.648-2.09,0-.129.032-.129.463-.335C620.53,357.549,618.865,357.978,618.083,359.118Zm7.674-3.955c-.559,2.113-.554,2.082-2.737,1.61a3.951,3.951,0,0,1-1.313-.664c-.139-.088-.322-.337-.14-.524.222-.227.314.095.411.194.7.708,1.643.6,2.494.8.231.054.337-.1.394-.295.258-.855.862-1.655.431-2.626a.312.312,0,0,1,.035-.23.77.77,0,0,1,.168-.166A1.932,1.932,0,0,1,625.758,355.163Zm-6.784.049a19.717,19.717,0,0,0,1.413-2.528c.613-1.6,1.748-1.943,3.294-1.751a23.358,23.358,0,0,0,2.751.019A10.24,10.24,0,0,1,618.974,355.212Zm11.315-3.027a7.3,7.3,0,0,0-2.318.635,1.872,1.872,0,0,1-1.4-.084c-.128-.062-.362,0-.267-.258.068-.183.2-.146.384-.105a4.7,4.7,0,0,0,2.608-.463c.311-.108.361-.3.276-.619-.245-.922-.252-1.931-1.05-2.658.952.087,1.034.884,1.238,1.5C629.972,350.77,630.011,351.465,630.288,352.185Zm.181-5.348a2.628,2.628,0,0,1-1.145.658c-.179.05-.387.187-.454-.064-.055-.206.153-.3.355-.338,1.016-.193,1.372-1.171,2.068-1.747.219-.181.035-.319-.087-.462-.574-.675-1.015-1.5-2-1.7a1.653,1.653,0,0,1-.421-.23l.186-.205c1.633-.02,2.023,1.693,3.191,2.339C631.4,345.478,631.059,346.275,630.469,346.836Z" transform="translate(-602.701 -329.877)" fill="#fafafa"/>
      <path id="Tracé_24" data-name="Tracé 24" d="M693.855,394.471a.884.884,0,0,0,.931-.859.617.617,0,0,0-.629-.747c-.607-.038-1.194.395-1.122.849C693.1,394.142,693.253,394.562,693.855,394.471Z" transform="translate(-678.481 -382.719)" fill="#fafafa"/>
      <path id="Tracé_25" data-name="Tracé 25" d="M673.942,405.826l.011-.007v-.007Z" transform="translate(-662.469 -393.583)" fill="#fafafa"/>
      <path id="Tracé_26" data-name="Tracé 26" d="M680.545,404.8c-1.957,0-3.915,0-5.872,0a1.227,1.227,0,0,0-.748.17c-.094.6.227.8.771.8.487,0,.974,0,1.526,0-.752,1.444-1.55,2.675-1.517,4.253a2.375,2.375,0,0,0,1.313,2.317,2.5,2.5,0,0,0,2.548-.271c.337-.222.525-.643.983-.748a2.268,2.268,0,0,1-.1.656c-.065.244-.286.668.289.709.444.031.668-.154.619-.6-.108-.991.194-1.958.162-2.943a12.164,12.164,0,0,0-.141-2.783c-.029-.11-.218-.485.223-.456.409.027.732-.044.728-.571C681.325,404.74,680.921,404.8,680.545,404.8Zm-2.392,6.318a1.516,1.516,0,0,1-1.608.371,2.192,2.192,0,0,1-.979-1.785,10.379,10.379,0,0,1,1.772-3.73c.383-.544,1.242-.207,1.869-.164.374.026.349.519.349.862,0,.374,0,.747,0,1.329C679.9,409.244,679.1,410.2,678.153,411.12Z" transform="translate(-662.44 -392.733)" fill="#fafafa"/>
    </g>
    <g id="Groupe_7" data-name="Groupe 7" transform="translate(-59.74 329.492)">
      <path id="Tracé_27" data-name="Tracé 27" d="M-35.194,362.3a7.785,7.785,0,0,0-1.786-6.721c1.816-1.74,2.057-3.966,1.886-6.3a12.258,12.258,0,0,1-.177-3.448,6.58,6.58,0,0,1,.588-1.534.842.842,0,0,0-.205-1.014.675.675,0,0,0-.918-.176c-1.588.981-3.346.681-5.028.475a7.341,7.341,0,0,0-5.929,1.506c-.264.22-.475.3-.793,0a5.972,5.972,0,0,0-1.774-1.151c-1.774-.746-3.61-.485-5.409-.264a5.856,5.856,0,0,1-3.392-.386c-.471-.227-.918-.417-1.35.04a1.049,1.049,0,0,0-.026,1.325,4.185,4.185,0,0,1,.457,1.98c-.005,1.6-.243,3.187-.177,4.793a5.589,5.589,0,0,0,1.405,3.6c.391.438.323.723.03,1.045-1.82,2-1.475,4.393-1.317,6.777a6.25,6.25,0,0,1-.336,3.594c-.248.454-.486.951-.061,1.394s.991.289,1.473.045a4.456,4.456,0,0,1,2.062-.46c1.5,0,2.974.275,4.489.2a6.913,6.913,0,0,0,3.962-1.545c.352-.267.493-.226.773.044a6.388,6.388,0,0,0,5.051,1.593c1.933-.108,3.864-.731,5.75.294a.883.883,0,0,0,1.113-.141.823.823,0,0,0,.1-1.024C-35.592,365.411-35.4,363.815-35.194,362.3ZM-41,344.347c1.792.211,3.618.555,5.425-.492-.1.7-.4,1.19-.5,1.748-.339,1.92.342,3.787.2,5.694a5.066,5.066,0,0,1-1.4,3.211,1.473,1.473,0,0,1,.111-1.127,6.634,6.634,0,0,0,.525-3.838,9.578,9.578,0,0,1-.07-4.029c.084-.269-.024-.511-.364-.434-1.911.434-3.814-.193-5.726-.024a4.664,4.664,0,0,0-2.053.484,2.3,2.3,0,0,1-1.341.154A6.683,6.683,0,0,1-41,344.347Zm1,16.933V350.034C-37.454,353.1-37.172,357.421-40,361.28Zm-.858.067c0,.511-.16.62-.639.618-3.806-.018-7.612-.024-11.418,0-.606,0-.687-.222-.679-.742.028-1.874.011-3.749.011-5.624,0-1.9.02-3.8-.013-5.7-.009-.542.169-.662.68-.659q5.709.029,11.418,0c.478,0,.643.1.64.616Q-40.891,355.6-40.858,361.347Zm-.658-12.915H-52.662C-50.312,346.06-45.311,345.435-41.516,348.433ZM-58.4,351.526a32.219,32.219,0,0,1,.143-4.387,5.732,5.732,0,0,0-.646-3.261c1.969,1.016,3.884.658,5.82.421a5.937,5.937,0,0,1,4.516,1.045,2.244,2.244,0,0,1,.278.327,1.635,1.635,0,0,1-1.06-.1c-1.605-.882-3.321-.611-5.019-.419a9.582,9.582,0,0,1-2.776-.016c-.349-.062-.569-.227-.512.422a18.617,18.617,0,0,1-.05,3.343c-.137,1.483-.309,3.035.543,4.418a1.015,1.015,0,0,1-.059,1.08A4.723,4.723,0,0,1-58.4,351.526Zm3.98-1.454v11.009A8.864,8.864,0,0,1-54.423,350.072Zm1.356,16.757c-1.9-.156-3.857-.642-5.9.59a6.507,6.507,0,0,0,.69-4c-.1-.942-.232-1.906-.241-2.831a5.151,5.151,0,0,1,1.288-3.858.973.973,0,0,1-.043,1.232c-.79,1.254-.578,2.7-.45,4.043.131,1.374.049,2.734.095,4.1A19.62,19.62,0,0,1-54,366.087c1.561.091,3.2.384,4.663-.562.328-.213.649-.013,1.16.011A6.981,6.981,0,0,1-53.066,366.829Zm.3-4.007H-41.68A8.965,8.965,0,0,1-52.764,362.821Zm11.129,4.08a5.45,5.45,0,0,1-4.444-1.346c.839-.467,1.43.341,2.174.463a13.445,13.445,0,0,0,3.577.056,26.768,26.768,0,0,1,3.672-.041,11.6,11.6,0,0,1,.1-4.645c.262-1.625-.533-3.065-.743-4.629a5.167,5.167,0,0,1,1.415,3.463c.066,1.545-.226,3.076-.174,4.626a4.826,4.826,0,0,0,.705,2.511C-37.505,366.211-39.569,366.726-41.634,366.9Z" transform="translate(59.74 -342.992)" fill="#fafafa"/>
      <path id="Tracé_28" data-name="Tracé 28" d="M-3.1,402.739c-.3-.132-.174-.347-.191-.533-.025-.281.191-.277.382-.27.409.015.768-.012.737-.571-.033-.593-.478-.545-.864-.552-.857-.015-1.715,0-2.573-.006a31.5,31.5,0,0,0-4.07.15c-.417.059-.543.225-.547.614,0,.442.3.359.548.361.724.005,1.45-.038,2.17.012.886.061,1.744-.2,2.622-.168.518.017.9.551.573.817-.452.372-1.074.5-1.576.842-.212.144-.379-.187-.584-.275a2.9,2.9,0,0,0-2.945.169,3.758,3.758,0,0,0-.8,4.8,1.792,1.792,0,0,0,1.467,1.044c.28.012.555,0,.613-.357a.553.553,0,0,0-.346-.629,2.332,2.332,0,0,1-1.009-3.036,1.655,1.655,0,0,1,2.839-.672.735.735,0,0,0,1.157.053c.23-.177.468-.343.692-.526a1.166,1.166,0,0,1,1.264-.238A1.391,1.391,0,0,1-2.8,405a4.075,4.075,0,0,1-1.233,3.064c-.2.218-.546.46-.145.771a.656.656,0,0,0,1.034-.1,7.492,7.492,0,0,0,1.131-1.8C-1.448,405.518-1.417,403.476-3.1,402.739Z" transform="translate(18.626 -391.493)" fill="#fafafa"/>
      <path id="Tracé_29" data-name="Tracé 29" d="M7.81,428.734H6.285c-.508,0-1.018.027-1.525-.007-.688-.046-.639.414-.459.763.431.837.935,1.639,1.44,2.436.416.657.731.669,1.142.009.5-.8.926-1.645,1.39-2.467C8.576,428.929,8.354,428.733,7.81,428.734Z" transform="translate(6.109 -414.917)" fill="#fafafa"/>
      <path id="Tracé_30" data-name="Tracé 30" d="M28.272,390.421c.468-.007.752-.2.774-.707.027-.6-.418-.727-.836-.722-.386,0-.8.147-.777.7S27.766,390.436,28.272,390.421Z" transform="translate(-13.394 -381.584)" fill="#fafafa"/>
    </g>
  </g>
</svg>
